*
*
G04 PADS 9.4.1 Build Number: 494907 generated Gerber (RS-274-X) file*
G04 PC Version=2.1*
*
%IN "layout.pcb"*%
*
%MOIN*%
*
%FSLAX35Y35*%
*
*
*
*
G04 PC Standard Apertures*
*
*
G04 Thermal Relief Aperture macro.*
%AMTER*
1,1,$1,0,0*
1,0,$1-$2,0,0*
21,0,$3,$4,0,0,45*
21,0,$3,$4,0,0,135*
%
*
*
G04 Annular Aperture macro.*
%AMANN*
1,1,$1,0,0*
1,0,$2,0,0*
%
*
*
G04 Odd Aperture macro.*
%AMODD*
1,1,$1,0,0*
1,0,$1-0.005,0,0*
%
*
*
G04 PC Custom Aperture Macros*
*
*
*
*
*
*
G04 PC Aperture Table*
*
%ADD010C,0.01*%
%ADD031C,0.001*%
%ADD041C,0.00787*%
*
*
*
*
G04 PC Circuitry*
G04 Layer Name layout.pcb - circuitry*
%LPD*%
*
*
G04 PC Custom Flashes*
G04 Layer Name layout.pcb - flashes*
%LPD*%
*
*
G04 PC Circuitry*
G04 Layer Name layout.pcb - circuitry*
%LPD*%
*
G54D10*
G01X204248Y210669D02*
X212248D01*
X208248Y206669D02*
Y214669D01*
X204248Y220669D02*
X212248D01*
X208248Y216669D02*
Y224669D01*
X214248Y210669D02*
X222248D01*
X218248Y206669D02*
Y214669D01*
X214248Y220669D02*
X222248D01*
X218248Y216669D02*
Y224669D01*
X224248Y210669D02*
X232248D01*
X228248Y206669D02*
Y214669D01*
X224248Y220669D02*
X232248D01*
X228248Y216669D02*
Y224669D01*
X234248Y210669D02*
X242248D01*
X238248Y206669D02*
Y214669D01*
X234248Y220669D02*
X242248D01*
X238248Y216669D02*
Y224669D01*
X244248Y210669D02*
X252248D01*
X248248Y206669D02*
Y214669D01*
X244248Y220669D02*
X252248D01*
X248248Y216669D02*
Y224669D01*
X203748Y287669D02*
X211748D01*
X207748Y283669D02*
Y291669D01*
X203748Y297669D02*
X211748D01*
X207748Y293669D02*
Y301669D01*
X213748Y287669D02*
X221748D01*
X217748Y283669D02*
Y291669D01*
X213748Y297669D02*
X221748D01*
X217748Y293669D02*
Y301669D01*
X223748Y287669D02*
X231748D01*
X227748Y283669D02*
Y291669D01*
X223748Y297669D02*
X231748D01*
X227748Y293669D02*
Y301669D01*
X233748Y287669D02*
X241748D01*
X237748Y283669D02*
Y291669D01*
X233748Y297669D02*
X241748D01*
X237748Y293669D02*
Y301669D01*
X243748Y287669D02*
X251748D01*
X247748Y283669D02*
Y291669D01*
X243748Y297669D02*
X251748D01*
X247748Y293669D02*
Y301669D01*
X381024Y150488D02*
X389024Y158488D01*
X381024D02*
X389024Y150488D01*
X370787D02*
X378787Y158488D01*
X370787D02*
X378787Y150488D01*
X360551D02*
X368551Y158488D01*
X360551D02*
X368551Y150488D01*
X350315D02*
X358315Y158488D01*
X350315D02*
X358315Y150488D01*
X340079D02*
X348079Y158488D01*
X340079D02*
X348079Y150488D01*
X329843D02*
X337843Y158488D01*
X329843D02*
X337843Y150488D01*
X319606D02*
X327606Y158488D01*
X319606D02*
X327606Y150488D01*
X309370D02*
X317370Y158488D01*
X309370D02*
X317370Y150488D01*
X290024D02*
X298024Y158488D01*
X290024D02*
X298024Y150488D01*
X279787D02*
X287787Y158488D01*
X279787D02*
X287787Y150488D01*
X269551D02*
X277551Y158488D01*
X269551D02*
X277551Y150488D01*
X259315D02*
X267315Y158488D01*
X259315D02*
X267315Y150488D01*
X249079D02*
X257079Y158488D01*
X249079D02*
X257079Y150488D01*
X238843D02*
X246843Y158488D01*
X238843D02*
X246843Y150488D01*
X228606D02*
X236606Y158488D01*
X228606D02*
X236606Y150488D01*
X218370D02*
X226370Y158488D01*
X218370D02*
X226370Y150488D01*
X198362Y340488D02*
X206362Y348488D01*
X198362D02*
X206362Y340488D01*
X208598D02*
X216598Y348488D01*
X208598D02*
X216598Y340488D01*
X218835D02*
X226835Y348488D01*
X218835D02*
X226835Y340488D01*
X229071D02*
X237071Y348488D01*
X229071D02*
X237071Y340488D01*
X239307D02*
X247307Y348488D01*
X239307D02*
X247307Y340488D01*
X249543D02*
X257543Y348488D01*
X249543D02*
X257543Y340488D01*
X259780D02*
X267780Y348488D01*
X259780D02*
X267780Y340488D01*
X270016D02*
X278016Y348488D01*
X270016D02*
X278016Y340488D01*
X288362D02*
X296362Y348488D01*
X288362D02*
X296362Y340488D01*
X298598D02*
X306598Y348488D01*
X298598D02*
X306598Y340488D01*
X308835D02*
X316835Y348488D01*
X308835D02*
X316835Y340488D01*
X319071D02*
X327071Y348488D01*
X319071D02*
X327071Y340488D01*
X329307D02*
X337307Y348488D01*
X329307D02*
X337307Y340488D01*
X339543D02*
X347543Y348488D01*
X339543D02*
X347543Y340488D01*
X349780D02*
X357780Y348488D01*
X349780D02*
X357780Y340488D01*
X360016D02*
X368016Y348488D01*
X360016D02*
X368016Y340488D01*
X303748Y287669D02*
X311748D01*
X307748Y283669D02*
Y291669D01*
X303748Y297669D02*
X311748D01*
X307748Y293669D02*
Y301669D01*
X313748Y287669D02*
X321748D01*
X317748Y283669D02*
Y291669D01*
X313748Y297669D02*
X321748D01*
X317748Y293669D02*
Y301669D01*
X323748Y287669D02*
X331748D01*
X327748Y283669D02*
Y291669D01*
X323748Y297669D02*
X331748D01*
X327748Y293669D02*
Y301669D01*
X333748Y287669D02*
X341748D01*
X337748Y283669D02*
Y291669D01*
X333748Y297669D02*
X341748D01*
X337748Y293669D02*
Y301669D01*
X343748Y287669D02*
X351748D01*
X347748Y283669D02*
Y291669D01*
X343748Y297669D02*
X351748D01*
X347748Y293669D02*
Y301669D01*
X304248Y209419D02*
X312248D01*
X308248Y205419D02*
Y213419D01*
X304248Y219419D02*
X312248D01*
X308248Y215419D02*
Y223419D01*
X314248Y209419D02*
X322248D01*
X318248Y205419D02*
Y213419D01*
X314248Y219419D02*
X322248D01*
X318248Y215419D02*
Y223419D01*
X324248Y209419D02*
X332248D01*
X328248Y205419D02*
Y213419D01*
X324248Y219419D02*
X332248D01*
X328248Y215419D02*
Y223419D01*
X334248Y209419D02*
X342248D01*
X338248Y205419D02*
Y213419D01*
X334248Y219419D02*
X342248D01*
X338248Y215419D02*
Y223419D01*
X344248Y209419D02*
X352248D01*
X348248Y205419D02*
Y213419D01*
X344248Y219419D02*
X352248D01*
X348248Y215419D02*
Y223419D01*
X388866Y330984D02*
X396866Y338984D01*
X388866D02*
X396866Y330984D01*
X398709D02*
X406709Y338984D01*
X398709D02*
X406709Y330984D01*
X388866Y320748D02*
X396866Y328748D01*
X388866D02*
X396866Y320748D01*
X398709D02*
X406709Y328748D01*
X398709D02*
X406709Y320748D01*
X388866Y310512D02*
X396866Y318512D01*
X388866D02*
X396866Y310512D01*
X398709D02*
X406709Y318512D01*
X398709D02*
X406709Y310512D01*
X388866Y300276D02*
X396866Y308276D01*
X388866D02*
X396866Y300276D01*
X398709D02*
X406709Y308276D01*
X398709D02*
X406709Y300276D01*
X388866Y290039D02*
X396866Y298039D01*
X388866D02*
X396866Y290039D01*
X398709D02*
X406709Y298039D01*
X398709D02*
X406709Y290039D01*
X388866Y279803D02*
X396866Y287803D01*
X388866D02*
X396866Y279803D01*
X398709D02*
X406709Y287803D01*
X398709D02*
X406709Y279803D01*
X388866Y269567D02*
X396866Y277567D01*
X388866D02*
X396866Y269567D01*
X398709D02*
X406709Y277567D01*
X398709D02*
X406709Y269567D01*
X388866Y259331D02*
X396866Y267331D01*
X388866D02*
X396866Y259331D01*
X398709D02*
X406709Y267331D01*
X398709D02*
X406709Y259331D01*
X388913Y249543D02*
X396913Y257543D01*
X388913D02*
X396913Y249543D01*
X398756D02*
X406756Y257543D01*
X398756D02*
X406756Y249543D01*
X388913Y239307D02*
X396913Y247307D01*
X388913D02*
X396913Y239307D01*
X398756D02*
X406756Y247307D01*
X398756D02*
X406756Y239307D01*
X388913Y229071D02*
X396913Y237071D01*
X388913D02*
X396913Y229071D01*
X398756D02*
X406756Y237071D01*
X398756D02*
X406756Y229071D01*
X388913Y218835D02*
X396913Y226835D01*
X388913D02*
X396913Y218835D01*
X398756D02*
X406756Y226835D01*
X398756D02*
X406756Y218835D01*
X388913Y208598D02*
X396913Y216598D01*
X388913D02*
X396913Y208598D01*
X398756D02*
X406756Y216598D01*
X398756D02*
X406756Y208598D01*
X388913Y198362D02*
X396913Y206362D01*
X388913D02*
X396913Y198362D01*
X398756D02*
X406756Y206362D01*
X398756D02*
X406756Y198362D01*
X388913Y188126D02*
X396913Y196126D01*
X388913D02*
X396913Y188126D01*
X398756D02*
X406756Y196126D01*
X398756D02*
X406756Y188126D01*
X388913Y177890D02*
X396913Y185890D01*
X388913D02*
X396913Y177890D01*
X398756D02*
X406756Y185890D01*
X398756D02*
X406756Y177890D01*
X133008Y237402D02*
X141008D01*
X137008Y233402D02*
Y241402D01*
X133008Y276772D02*
X141008D01*
X137008Y272772D02*
Y280772D01*
X435370Y155512D02*
X443370D01*
X439370Y151512D02*
Y159512D01*
X396000Y155512D02*
X404000D01*
X400000Y151512D02*
Y159512D01*
X416472Y170866D02*
X424472D01*
X420472Y166866D02*
Y174866D01*
X426472Y170866D02*
X434472D01*
X430472Y166866D02*
Y174866D01*
X150331Y353150D02*
X158331D01*
X154331Y349150D02*
Y357150D01*
X140331Y353150D02*
X148331D01*
X144331Y349150D02*
Y357150D01*
X445213Y290488D02*
X453213Y298488D01*
X445213D02*
X453213Y290488D01*
X445213Y280252D02*
X453213Y288252D01*
X445213D02*
X453213Y280252D01*
X445213Y270016D02*
X453213Y278016D01*
X445213D02*
X453213Y270016D01*
X445213Y259780D02*
X453213Y267780D01*
X445213D02*
X453213Y259780D01*
X445213Y249543D02*
X453213Y257543D01*
X445213D02*
X453213Y249543D01*
X445213Y239307D02*
X453213Y247307D01*
X445213D02*
X453213Y239307D01*
X445213Y229071D02*
X453213Y237071D01*
X445213D02*
X453213Y229071D01*
X445213Y218835D02*
X453213Y226835D01*
X445213D02*
X453213Y218835D01*
X445213Y208598D02*
X453213Y216598D01*
X445213D02*
X453213Y208598D01*
X445213Y198362D02*
X453213Y206362D01*
X445213D02*
X453213Y198362D01*
X445213Y188126D02*
X453213Y196126D01*
X445213D02*
X453213Y188126D01*
X445213Y177890D02*
X453213Y185890D01*
X445213D02*
X453213Y177890D01*
X198362Y361748D02*
X206362Y369748D01*
X198362D02*
X206362Y361748D01*
X208598D02*
X216598Y369748D01*
X208598D02*
X216598Y361748D01*
X218835D02*
X226835Y369748D01*
X218835D02*
X226835Y361748D01*
X229071D02*
X237071Y369748D01*
X229071D02*
X237071Y361748D01*
X239307D02*
X247307Y369748D01*
X239307D02*
X247307Y361748D01*
X249543D02*
X257543Y369748D01*
X249543D02*
X257543Y361748D01*
X259780D02*
X267780Y369748D01*
X259780D02*
X267780Y361748D01*
X270016D02*
X278016Y369748D01*
X270016D02*
X278016Y361748D01*
X288126Y361354D02*
X296126Y369354D01*
X288126D02*
X296126Y361354D01*
X298362D02*
X306362Y369354D01*
X298362D02*
X306362Y361354D01*
X308598D02*
X316598Y369354D01*
X308598D02*
X316598Y361354D01*
X318835D02*
X326835Y369354D01*
X318835D02*
X326835Y361354D01*
X329071D02*
X337071Y369354D01*
X329071D02*
X337071Y361354D01*
X339307D02*
X347307Y369354D01*
X339307D02*
X347307Y361354D01*
X349543D02*
X357543Y369354D01*
X349543D02*
X357543Y361354D01*
X359780D02*
X367780Y369354D01*
X359780D02*
X367780Y361354D01*
X197575Y150331D02*
X205575Y158331D01*
X197575D02*
X205575Y150331D01*
X187339D02*
X195339Y158331D01*
X187339D02*
X195339Y150331D01*
X177102D02*
X185102Y158331D01*
X177102D02*
X185102Y150331D01*
X166866D02*
X174866Y158331D01*
X166866D02*
X174866Y150331D01*
X156630D02*
X164630Y158331D01*
X156630D02*
X164630Y150331D01*
X146394D02*
X154394Y158331D01*
X146394D02*
X154394Y150331D01*
X136157D02*
X144157Y158331D01*
X136157D02*
X144157Y150331D01*
X125921D02*
X133921Y158331D01*
X125921D02*
X133921Y150331D01*
X445213Y327102D02*
X453213Y335102D01*
X445213D02*
X453213Y327102D01*
X445213Y316866D02*
X453213Y324866D01*
X445213D02*
X453213Y316866D01*
X445213Y306630D02*
X453213Y314630D01*
X445213D02*
X453213Y306630D01*
X125528Y283402D02*
X133528Y291402D01*
X125528D02*
X133528Y283402D01*
X143638D02*
X151638Y291402D01*
X143638D02*
X151638Y283402D01*
X143638Y308598D02*
X151638Y316598D01*
X143638D02*
X151638Y308598D01*
X125528D02*
X133528Y316598D01*
X125528D02*
X133528Y308598D01*
X149543Y296000D02*
X157543Y304000D01*
X149543D02*
X157543Y296000D01*
X290094Y164567D02*
X298094D01*
X294094Y160567D02*
Y168567D01*
X279858Y174803D02*
X287858D01*
X283858Y170803D02*
Y178803D01*
X320409Y174803D02*
X328409D01*
X324409Y170803D02*
Y178803D01*
X331433Y175197D02*
X339433D01*
X335433Y171197D02*
Y179197D01*
X351512Y175197D02*
X359512D01*
X355512Y171197D02*
Y179197D01*
X269248Y184606D02*
X277248D01*
X273248Y180606D02*
Y188606D01*
X141000Y200000D02*
X149000D01*
X145000Y196000D02*
Y204000D01*
X162142Y198031D02*
X170142D01*
X166142Y194031D02*
Y202031D01*
X204248Y192106D02*
X212248D01*
X208248Y188106D02*
Y196106D01*
X214248Y192106D02*
X222248D01*
X218248Y188106D02*
Y196106D01*
X224248Y192106D02*
X232248D01*
X228248Y188106D02*
Y196106D01*
X234248Y192106D02*
X242248D01*
X238248Y188106D02*
Y196106D01*
X244248Y192106D02*
X252248D01*
X248248Y188106D02*
Y196106D01*
X311748Y192106D02*
X319748D01*
X315748Y188106D02*
Y196106D01*
X148362Y237008D02*
X156362D01*
X152362Y233008D02*
Y241008D01*
X175921Y237008D02*
X183921D01*
X179921Y233008D02*
Y241008D01*
X321197Y240551D02*
X329197D01*
X325197Y236551D02*
Y244551D01*
X358598Y240157D02*
X366598D01*
X362598Y236157D02*
Y244157D01*
X166866Y247638D02*
X174866D01*
X170866Y243638D02*
Y251638D01*
X183087Y246732D02*
X191087D01*
X187087Y242732D02*
Y250732D01*
X288126Y249213D02*
X296126D01*
X292126Y245213D02*
Y253213D01*
X271984Y255906D02*
X279984D01*
X275984Y251906D02*
Y259906D01*
X203748Y269606D02*
X211748D01*
X207748Y265606D02*
Y273606D01*
X214248Y269606D02*
X222248D01*
X218248Y265606D02*
Y273606D01*
X224248Y269606D02*
X232248D01*
X228248Y265606D02*
Y273606D01*
X234248Y269606D02*
X242248D01*
X238248Y265606D02*
Y273606D01*
X244248Y269606D02*
X252248D01*
X248248Y265606D02*
Y273606D01*
X294031Y264173D02*
X302031D01*
X298031Y260173D02*
Y268173D01*
X408500Y302500D02*
X416500D01*
X412500Y298500D02*
Y306500D01*
X355843Y316929D02*
X363843D01*
X359843Y312929D02*
Y320929D01*
X366079Y314961D02*
X374079D01*
X370079Y310961D02*
Y318961D01*
X433500Y320000D02*
X441500D01*
X437500Y316000D02*
Y324000D01*
X201000Y322500D02*
X209000D01*
X205000Y318500D02*
Y326500D01*
X279465Y322047D02*
X287465D01*
X283465Y318047D02*
Y326047D01*
X411000Y330000D02*
X419000D01*
X415000Y326000D02*
Y334000D01*
X433500Y352500D02*
X441500D01*
X437500Y348500D02*
Y356500D01*
X114173Y141732D02*
X473228D01*
Y378346*
X114173*
Y141732*
X100000Y172000D02*
X358000D01*
X100000Y148000D02*
X358000D01*
X100000Y124000D02*
X358000D01*
X100000Y100000D02*
X358000D01*
X100000Y172000D02*
Y100000D01*
X184000Y172000D02*
Y100000D01*
X220000Y172000D02*
Y100000D01*
X256000Y172000D02*
Y100000D01*
X310000Y172000D02*
Y100000D01*
X358000Y172000D02*
Y100000D01*
X135500Y160750D02*
X134955Y161500D01*
X134136Y161875*
X133045*
X132227Y161500*
X131682Y160750*
Y160000*
X131955Y159250*
X132227Y158875*
X132773Y158500*
X134409Y157750*
X134955Y157375*
X135227Y157000*
X135500Y156250*
Y155125*
X134955Y154375*
X134136Y154000*
X133045*
X132227Y154375*
X131682Y155125*
X137955Y161875D02*
Y154000D01*
X144227Y161875D02*
X140409Y154000D01*
Y161875D02*
X144227D01*
X140409Y154000D02*
X144227D01*
X146682Y161875D02*
Y154000D01*
Y161875D02*
X150227D01*
X146682Y158125D02*
X148864D01*
X146682Y154000D02*
X150227D01*
X193864Y161875D02*
X193318Y161500D01*
X192773Y160750*
X192500Y160000*
X192227Y158875*
Y157000*
X192500Y155875*
X192773Y155125*
X193318Y154375*
X193864Y154000*
X194955*
X195500Y154375*
X196045Y155125*
X196318Y155875*
X196591Y157000*
Y158875*
X196318Y160000*
X196045Y160750*
X195500Y161500*
X194955Y161875*
X193864*
X194682Y155500D02*
X196318Y153250D01*
X200955Y161875D02*
Y154000D01*
X199045Y161875D02*
X202864D01*
X205318D02*
X207500Y158125D01*
Y154000*
X209682Y161875D02*
X207500Y158125D01*
X232045Y160750D02*
X231500Y161500D01*
X230682Y161875*
X229591*
X228773Y161500*
X228227Y160750*
Y160000*
X228500Y159250*
X228773Y158875*
X229318Y158500*
X230955Y157750*
X231500Y157375*
X231773Y157000*
X232045Y156250*
Y155125*
X231500Y154375*
X230682Y154000*
X229591*
X228773Y154375*
X228227Y155125*
X234500Y161875D02*
X236682Y158125D01*
Y154000*
X238864Y161875D02*
X236682Y158125D01*
X241318Y161875D02*
Y154000D01*
Y161875D02*
X243500Y154000D01*
X245682Y161875D02*
X243500Y154000D01*
X245682Y161875D02*
Y154000D01*
X267500Y161875D02*
Y154000D01*
Y161875D02*
X269955D01*
X270773Y161500*
X271045Y161125*
X271318Y160375*
Y159250*
X271045Y158500*
X270773Y158125*
X269955Y157750*
X267500*
X273773Y161875D02*
Y154000D01*
X277045*
X281682Y161875D02*
X279500Y154000D01*
X281682Y161875D02*
X283864Y154000D01*
X280318Y156625D02*
X283045D01*
X288227Y161875D02*
Y154000D01*
X286318Y161875D02*
X290136D01*
X292591D02*
Y154000D01*
Y161875D02*
X296136D01*
X292591Y158125D02*
X294773D01*
X292591Y154000D02*
X296136D01*
X298591Y161875D02*
Y154000D01*
Y161875D02*
X300500D01*
X301318Y161500*
X301864Y160750*
X302136Y160000*
X302409Y158875*
Y157000*
X302136Y155875*
X301864Y155125*
X301318Y154375*
X300500Y154000*
X298591*
X326682Y161875D02*
Y154000D01*
X324773Y161875D02*
X328591D01*
X332682D02*
X332136Y161500D01*
X331591Y160750*
X331318Y160000*
X331045Y158875*
Y157000*
X331318Y155875*
X331591Y155125*
X332136Y154375*
X332682Y154000*
X333773*
X334318Y154375*
X334864Y155125*
X335136Y155875*
X335409Y157000*
Y158875*
X335136Y160000*
X334864Y160750*
X334318Y161500*
X333773Y161875*
X332682*
X337864D02*
Y154000D01*
X341136*
X107636Y137875D02*
X106818Y137500D01*
X106273Y136375*
X106000Y134500*
Y133375*
X106273Y131500*
X106818Y130375*
X107636Y130000*
X108182*
X109000Y130375*
X109545Y131500*
X109818Y133375*
Y134500*
X109545Y136375*
X109000Y137500*
X108182Y137875*
X107636*
X112545Y130750D02*
X112273Y130375D01*
X112545Y130000*
X112818Y130375*
X112545Y130750*
X116636Y137875D02*
X115818Y137500D01*
X115545Y136750*
Y136000*
X115818Y135250*
X116364Y134875*
X117455Y134500*
X118273Y134125*
X118818Y133375*
X119091Y132625*
Y131500*
X118818Y130750*
X118545Y130375*
X117727Y130000*
X116636*
X115818Y130375*
X115545Y130750*
X115273Y131500*
Y132625*
X115545Y133375*
X116091Y134125*
X116909Y134500*
X118000Y134875*
X118545Y135250*
X118818Y136000*
Y136750*
X118545Y137500*
X117727Y137875*
X116636*
X197136D02*
X196318Y137500D01*
X196045Y136750*
Y136000*
X196318Y135250*
X196864Y134875*
X197955Y134500*
X198773Y134125*
X199318Y133375*
X199591Y132625*
Y131500*
X199318Y130750*
X199045Y130375*
X198227Y130000*
X197136*
X196318Y130375*
X196045Y130750*
X195773Y131500*
Y132625*
X196045Y133375*
X196591Y134125*
X197409Y134500*
X198500Y134875*
X199045Y135250*
X199318Y136000*
Y136750*
X199045Y137500*
X198227Y137875*
X197136*
X204773D02*
X202045Y132625D01*
X206136*
X204773Y137875D02*
Y130000D01*
X232000Y136000D02*
X244000D01*
X238000Y130000D02*
Y142000D01*
X264636Y137875D02*
X266818Y134125D01*
Y130000*
X269000Y137875D02*
X266818Y134125D01*
X271455Y137875D02*
Y130000D01*
Y137875D02*
X275000D01*
X271455Y134125D02*
X273636D01*
X271455Y130000D02*
X275000D01*
X281273Y136750D02*
X280727Y137500D01*
X279909Y137875*
X278818*
X278000Y137500*
X277455Y136750*
Y136000*
X277727Y135250*
X278000Y134875*
X278545Y134500*
X280182Y133750*
X280727Y133375*
X281000Y133000*
X281273Y132250*
Y131125*
X280727Y130375*
X279909Y130000*
X278818*
X278000Y130375*
X277455Y131125*
X317818Y136750D02*
Y130000D01*
X315364Y133375D02*
X320273D01*
X327636Y139375D02*
X322727Y127375D01*
X330091Y133375D02*
X335000D01*
X339091Y137875D02*
X338273Y137500D01*
X337727Y136375*
X337455Y134500*
Y133375*
X337727Y131500*
X338273Y130375*
X339091Y130000*
X339636*
X340455Y130375*
X341000Y131500*
X341273Y133375*
Y134500*
X341000Y136375*
X340455Y137500*
X339636Y137875*
X339091*
X344000Y130750D02*
X343727Y130375D01*
X344000Y130000*
X344273Y130375*
X344000Y130750*
X348364Y137875D02*
X347545Y137500D01*
X347000Y136375*
X346727Y134500*
Y133375*
X347000Y131500*
X347545Y130375*
X348364Y130000*
X348909*
X349727Y130375*
X350273Y131500*
X350545Y133375*
Y134500*
X350273Y136375*
X349727Y137500*
X348909Y137875*
X348364*
X106000Y112375D02*
X106545Y112750D01*
X107364Y113875*
Y106000*
X194000Y112375D02*
X194545Y112750D01*
X195364Y113875*
Y106000*
X199455Y113875D02*
X198636Y113500D01*
X198091Y112375*
X197818Y110500*
Y109375*
X198091Y107500*
X198636Y106375*
X199455Y106000*
X200000*
X200818Y106375*
X201364Y107500*
X201636Y109375*
Y110500*
X201364Y112375*
X200818Y113500*
X200000Y113875*
X199455*
X205455D02*
X204636Y113500D01*
X204364Y112750*
Y112000*
X204636Y111250*
X205182Y110875*
X206273Y110500*
X207091Y110125*
X207636Y109375*
X207909Y108625*
Y107500*
X207636Y106750*
X207364Y106375*
X206545Y106000*
X205455*
X204636Y106375*
X204364Y106750*
X204091Y107500*
Y108625*
X204364Y109375*
X204909Y110125*
X205727Y110500*
X206818Y110875*
X207364Y111250*
X207636Y112000*
Y112750*
X207364Y113500*
X206545Y113875*
X205455*
X232000Y106000D02*
X244000Y118000D01*
X232000D02*
X244000Y106000D01*
X264636Y113875D02*
X266818Y110125D01*
Y106000*
X269000Y113875D02*
X266818Y110125D01*
X271455Y113875D02*
Y106000D01*
Y113875D02*
X275000D01*
X271455Y110125D02*
X273636D01*
X271455Y106000D02*
X275000D01*
X281273Y112750D02*
X280727Y113500D01*
X279909Y113875*
X278818*
X278000Y113500*
X277455Y112750*
Y112000*
X277727Y111250*
X278000Y110875*
X278545Y110500*
X280182Y109750*
X280727Y109375*
X281000Y109000*
X281273Y108250*
Y107125*
X280727Y106375*
X279909Y106000*
X278818*
X278000Y106375*
X277455Y107125*
X317818Y112750D02*
Y106000D01*
X315364Y109375D02*
X320273D01*
X327636Y115375D02*
X322727Y103375D01*
X330091Y109375D02*
X335000D01*
X339091Y113875D02*
X338273Y113500D01*
X337727Y112375*
X337455Y110500*
Y109375*
X337727Y107500*
X338273Y106375*
X339091Y106000*
X339636*
X340455Y106375*
X341000Y107500*
X341273Y109375*
Y110500*
X341000Y112375*
X340455Y113500*
X339636Y113875*
X339091*
X344000Y106750D02*
X343727Y106375D01*
X344000Y106000*
X344273Y106375*
X344000Y106750*
X348364Y113875D02*
X347545Y113500D01*
X347000Y112375*
X346727Y110500*
Y109375*
X347000Y107500*
X347545Y106375*
X348364Y106000*
X348909*
X349727Y106375*
X350273Y107500*
X350545Y109375*
Y110500*
X350273Y112375*
X349727Y113500*
X348909Y113875*
X348364*
G54D31*
G54D41*
X457087Y185089D02*
Y179921D01*
Y185089D02*
X458697D01*
X459234Y184843*
X459413Y184596*
X459592Y184104*
Y183366*
X459413Y182874*
X459234Y182628*
X458697Y182382*
X457087*
X461203Y185089D02*
Y179921D01*
Y185089D02*
X462455D01*
X462992Y184843*
X463350Y184350*
X463529Y183858*
X463708Y183120*
Y181890*
X463529Y181152*
X463350Y180659*
X462992Y180167*
X462455Y179921*
X461203*
X466392Y185089D02*
X465855Y184843D01*
X465497Y184104*
X465319Y182874*
Y182136*
X465497Y180906*
X465855Y180167*
X466392Y179921*
X466750*
X467287Y180167*
X467645Y180906*
X467824Y182136*
Y182874*
X467645Y184104*
X467287Y184843*
X466750Y185089*
X466392*
X456299Y296900D02*
Y291732D01*
Y296900D02*
X457910D01*
X458447Y296654*
X458626Y296407*
X458805Y295915*
Y295177*
X458626Y294685*
X458447Y294439*
X457910Y294193*
X456299*
X460415Y296900D02*
Y291732D01*
Y296900D02*
X461668D01*
X462205Y296654*
X462563Y296161*
X462742Y295669*
X462921Y294931*
Y293701*
X462742Y292963*
X462563Y292470*
X462205Y291978*
X461668Y291732*
X460415*
X464531Y295915D02*
X464889Y296161D01*
X465426Y296900*
Y291732*
X467037Y295915D02*
X467394Y296161D01*
X467931Y296900*
Y291732*
X163337Y350680D02*
X163583Y350322D01*
X164075Y349964*
X164567Y349785*
X165305Y349606*
X166535*
X167274Y349785*
X167766Y349964*
X168258Y350322*
X168504Y350680*
Y351396*
X168258Y351754*
X167766Y352112*
X167274Y352291*
X166535Y352470*
X165305*
X164567Y352291*
X164075Y352112*
X163583Y351754*
X163337Y351396*
Y350680*
Y354080D02*
X168504D01*
X163337D02*
X168504Y356586D01*
X163337D02*
X168504D01*
X460200Y312648D02*
X458411D01*
X458232Y310433*
X458411Y310679*
X458948Y310925*
X459485*
X460021Y310679*
X460379Y310187*
X460558Y309449*
X460379Y308957*
X460200Y308219*
X459843Y307726*
X459306Y307480*
X458769*
X458232Y307726*
X458053Y307972*
X457874Y308465*
X462169Y312648D02*
X463601Y307480D01*
X465032Y312648D02*
X463601Y307480D01*
X457838Y323278D02*
X459807D01*
X458733Y321309*
X459270*
X459628Y321063*
X459807Y320817*
X459986Y320079*
Y319587*
X459807Y318848*
X459449Y318356*
X458912Y318110*
X458375*
X457838Y318356*
X457659Y318602*
X457480Y319094*
X461775Y318602D02*
X461596Y318356D01*
X461775Y318110*
X461954Y318356*
X461775Y318602*
X463923Y323278D02*
X465891D01*
X464817Y321309*
X465354*
X465712Y321063*
X465891Y320817*
X466070Y320079*
Y319587*
X465891Y318848*
X465533Y318356*
X464996Y318110*
X464460*
X463923Y318356*
X463744Y318602*
X463565Y319094*
X458984Y333071D02*
X458805Y333563D01*
X458447Y334055*
X458089Y334301*
X457373*
X457015Y334055*
X456657Y333563*
X456478Y333071*
X456299Y332333*
Y331102*
X456478Y330364*
X456657Y329872*
X457015Y329380*
X457373Y329134*
X458089*
X458447Y329380*
X458805Y329872*
X458984Y330364*
Y331102*
X458089D02*
X458984D01*
X460594Y334301D02*
Y329134D01*
Y334301D02*
X463099Y329134D01*
Y334301D02*
Y329134D01*
X464710Y334301D02*
Y329134D01*
Y334301D02*
X465963D01*
X466500Y334055*
X466858Y333563*
X467037Y333071*
X467215Y332333*
Y331102*
X467037Y330364*
X466858Y329872*
X466500Y329380*
X465963Y329134*
X464710*
X161479Y293701D02*
X165354D01*
X161479D02*
Y294909D01*
X161663Y295311*
X161848Y295446*
X162217Y295580*
X162586*
X162955Y295446*
X163140Y295311*
X163324Y294909*
Y293701*
Y294640D02*
X165354Y295580D01*
X161479Y296788D02*
X165354D01*
X161479D02*
Y298533D01*
X163324Y296788D02*
Y297861D01*
X165354Y296788D02*
Y298533D01*
X162032Y301620D02*
X161663Y301351D01*
X161479Y300948*
Y300412*
X161663Y300009*
X162032Y299741*
X162402*
X162771Y299875*
X162955Y300009*
X163140Y300277*
X163509Y301083*
X163693Y301351*
X163878Y301485*
X164247Y301620*
X164801*
X165170Y301351*
X165354Y300948*
Y300412*
X165170Y300009*
X164801Y299741*
X161479Y302827D02*
X165354D01*
X161479D02*
Y304572D01*
X163324Y302827D02*
Y303901D01*
X165354Y302827D02*
Y304572D01*
X161479Y306720D02*
X165354D01*
X161479Y305780D02*
Y307659D01*
X0Y0D02*
M02*
