%
T1C.0315F197S55
X016614Y019803
X0145Y02
X015236Y023701
X013701Y02374
X017087Y024764
X013701Y027677
X014433Y035315
X015433Y035315
X0205Y03225
X020775Y029767
X021775Y029767
X022775Y029767
X021775Y028767
X020775Y028767
X022775Y028767
X020775Y026961
X021825Y026961
X022825Y026961
X018709Y024673
X017992Y023701
X022825Y022067
X020825Y022067
X021825Y022067
X022825Y021067
X021825Y021067
X020825Y021067
X022825Y019211
X020825Y019211
X021825Y019211
X023825Y019211
X024825Y019211
X023825Y021067
X024825Y021067
X023825Y022067
X024825Y022067
X023825Y026961
X024825Y026961
X024775Y028767
X023775Y028767
X023775Y029767
X024775Y029767
X028346Y032205
X029803Y026417
X027598Y025591
X029213Y024921
X027325Y018461
X028386Y01748
X029409Y016457
X032441Y01748
X031575Y019211
X032825Y020942
X030825Y020942
X031825Y020942
X032825Y021942
X031825Y021942
X030825Y021942
X03252Y024055
X032775Y028767
X031775Y028767
X030775Y028767
X032775Y029767
X031775Y029767
X030775Y029767
X033775Y029767
X034775Y029767
X033775Y028767
X034775Y028767
X033825Y021942
X034825Y021942
X033825Y020942
X034825Y020942
X033543Y01752
X04Y015551
X035551Y01752
X03626Y024016
X037008Y031496
X035984Y031693
X04375Y03525
X0415Y033
X04375Y032
X04125Y03025
X043047Y017087
X042047Y017087
X043937Y015551
T2C.03937F197S55
X015039Y015433
X014016Y015433
X012992Y015433
X017087Y015433
X016063Y015433
X012953Y02874
X014764Y02874
X015354Y03
X014764Y03126
X012953Y03126
X020236Y036575
X02126Y036575
X022283Y036575
X02126Y034449
X022283Y034449
X020236Y034449
X022237Y015449
X01811Y015433
X019134Y015433
X020157Y015433
X025308Y015449
X024284Y015449
X023261Y015449
X024331Y034449
X025354Y034449
X023307Y034449
X023307Y036575
X024331Y036575
X025354Y036575
X026378Y036575
X027402Y036575
X029213Y036535
X030236Y036535
X029236Y034449
X03026Y034449
X026378Y034449
X027402Y034449
X026331Y015449
X027355Y015449
X029402Y015449
X028379Y015449
X032361Y015449
X031337Y015449
X035431Y015449
X034408Y015449
X033384Y015449
X034354Y034449
X035378Y034449
X033331Y034449
X031283Y034449
X032307Y034449
X035354Y036535
X032283Y036535
X033307Y036535
X034331Y036535
X03126Y036535
X036378Y036535
X036402Y034449
X039287Y033498
X040271Y033498
X040271Y032475
X039287Y032475
X039287Y031451
X040271Y031451
X039287Y030428
X040271Y030428
X040271Y029404
X039287Y029404
X039287Y02838
X040271Y02838
X039287Y027357
X040271Y027357
X040271Y026333
X039287Y026333
X040276Y025354
X039291Y025354
X039291Y024331
X040276Y024331
X039291Y023307
X040276Y023307
X039291Y022283
X040276Y022283
X039291Y02126
X040276Y02126
X039291Y020236
X040276Y020236
X039291Y019213
X040276Y019213
X039291Y018189
X040276Y018189
X036455Y015449
X038502Y015449
X037479Y015449
X044921Y018189
X044921Y019213
X044921Y020236
X044921Y02126
X044921Y022283
X044921Y023307
X044921Y024331
X044921Y025354
X044921Y026378
X044921Y027402
X044921Y028425
X044921Y029449
X044921Y031063
X044921Y032087
X044921Y03311
M30
