*
*
G04 PADS 9.4.1 Build Number: 494907 generated Gerber (RS-274-X) file*
G04 PC Version=2.1*
*
%IN "layout.pcb"*%
*
%MOIN*%
*
%FSLAX35Y35*%
*
*
*
*
G04 PC Standard Apertures*
*
*
G04 Thermal Relief Aperture macro.*
%AMTER*
1,1,$1,0,0*
1,0,$1-$2,0,0*
21,0,$3,$4,0,0,45*
21,0,$3,$4,0,0,135*
%
*
*
G04 Annular Aperture macro.*
%AMANN*
1,1,$1,0,0*
1,0,$2,0,0*
%
*
*
G04 Odd Aperture macro.*
%AMODD*
1,1,$1,0,0*
1,0,$1-0.005,0,0*
%
*
*
G04 PC Custom Aperture Macros*
*
*
*
*
*
*
G04 PC Aperture Table*
*
%ADD010C,0.01*%
%ADD023R,0.12X0.095*%
%ADD026ANN,0.07087X0.03937*%
%ADD029ANN,0.06693X0.0315*%
%ADD031C,0.001*%
%ADD036C,0.01969*%
%ADD042ANN,0.07087X0.0315*%
%ADD043ANN,0.07874X0.0315*%
%ADD044C,0.04724*%
%ADD045C,0.015*%
%ADD049ANN,0.07874X0.03937*%
*
*
*
*
G04 PC Circuitry*
G04 Layer Name layout.pcb - circuitry*
%LPD*%
*
*
G04 PC Custom Flashes*
G04 Layer Name layout.pcb - flashes*
%LPD*%
*
*
G04 PC Circuitry*
G04 Layer Name layout.pcb - circuitry*
%LPD*%
*
G54D10*
G01X445776Y155512D02*
G75*
G03X445776I-6406J0D01*
G01X421012Y330000D02*
G03X421012I-6012J0D01*
G01X211012Y322500D02*
G03X211012I-6012J0D01*
G01X135933Y312598D02*
G03X135933I-6405J0D01*
G01X154043D02*
G03X154043I-6405J0D01*
G01X331209Y240551D02*
G03X331209I-6012J0D01*
G01X406406Y155512D02*
G03X406406I-6406J0D01*
G01X470366Y338216D02*
Y374984D01*
G03X469866Y375484I-500J0*
G01X117929*
G03X117429Y374984I0J-500*
G01Y145094*
G03X117929Y144594I500J0*
G01X469866*
G03X470366Y145094I0J500*
G01Y174987*
G03X469709Y175462I-500J-0*
G01X468933Y175337D02*
G03X469709Y175462I0J2468D01*
G01X468933Y175337D02*
X456693D01*
X454269Y177340D02*
G03X456693Y175337I2424J465D01*
G01X454269Y177340D02*
G03X453427Y177602I-491J-94D01*
G01X445496Y186615D02*
G03X453427Y177602I3717J-4725D01*
G01X445496Y186615D02*
G03Y187401I-309J393D01*
G01Y196851D02*
G03Y187401I3717J-4725D01*
G01Y196851D02*
G03Y197637I-309J393D01*
G01Y207087D02*
G03Y197637I3717J-4725D01*
G01Y207087D02*
G03Y207873I-309J393D01*
G01Y217324D02*
G03Y207873I3717J-4726D01*
G01Y217324D02*
G03Y218110I-309J393D01*
G01Y227560D02*
G03Y218110I3717J-4725D01*
G01Y227560D02*
G03Y228346I-309J393D01*
G01Y237796D02*
G03Y228346I3717J-4725D01*
G01Y237796D02*
G03Y238582I-309J393D01*
G01Y248032D02*
G03Y238582I3717J-4725D01*
G01Y248032D02*
G03Y248818I-309J393D01*
G01Y258268D02*
G03Y248818I3717J-4725D01*
G01Y258268D02*
G03Y259054I-309J393D01*
G01Y268505D02*
G03Y259054I3717J-4725D01*
G01Y268505D02*
G03Y269291I-309J393D01*
G01Y278741D02*
G03Y269291I3717J-4725D01*
G01Y278741D02*
G03Y279527I-309J393D01*
G01Y288977D02*
G03Y279527I3717J-4725D01*
G01Y288977D02*
G03Y289763I-309J393D01*
G01X452938Y299207D02*
G03X445496Y289763I-3725J-4719D01*
G01X452938Y299207D02*
G03X453695Y299377I309J392D01*
G01X455727Y300740D02*
G03X453695Y299377I179J-2462D01*
G01X455727Y300740D02*
G03X455974Y301650I-37J498D01*
G01X454905Y303683D02*
G03X455974Y301650I2469J0D01*
G01X454905Y303683D02*
Y306701D01*
G03X454007Y307003I-500J-0*
G01X445496Y315355D02*
G03X454007Y307003I3717J-4725D01*
G01X445496Y315355D02*
G03Y316141I-309J393D01*
G01X443998Y317875D02*
G03X445496Y316141I5215J2991D01*
G01X443998Y317875D02*
G03X443098Y317809I-434J-249D01*
G01X433851Y324778D02*
G03X443098Y317809I3649J-4778D01*
G01X433851Y324778D02*
G03X434047Y325175I-304J397D01*
G01Y347325*
G03X433851Y347722I-500J0*
G01X441149D02*
G03X433851I-3649J4778D01*
G01X441149D02*
G03X440953Y347325I304J-397D01*
G01Y325175*
G03X441149Y324778I500J-0*
G01X442715Y322991D02*
G03X441149Y324778I-5215J-2991D01*
G01X442715Y322991D02*
G03X443614Y323057I434J249D01*
G01X445496Y325591D02*
G03X443614Y323057I3717J-4725D01*
G01X445496Y325591D02*
G03Y326377I-309J393D01*
G01X452729Y335978D02*
G03X445496Y326377I-3516J-4876D01*
G01X452729Y335978D02*
G03X453508Y336265I293J406D01*
G01X455906Y338148D02*
G03X453508Y336265I-0J-2469D01*
G01X455906Y338148D02*
X468325D01*
X469607Y337789D02*
G03X468325Y338148I-1282J-2110D01*
G01X469607Y337789D02*
G03X470366Y338216I259J427D01*
G01X445776Y155512D02*
G03X445776I-6406J0D01*
G01X421012Y330000D02*
G03X421012I-6012J0D01*
G01X351600Y293053D02*
G03X343132Y301521I-3852J4616D01*
G01X351600Y293053D02*
G03Y292285I320J-384D01*
G01X343132Y283818D02*
G03X351600Y292285I4616J3851D01*
G01X343132Y283818D02*
G03X342364I-384J-321D01*
G01X333132D02*
G03X342364I4616J3851D01*
G01X333132D02*
G03X332364I-384J-321D01*
G01X323132D02*
G03X332364I4616J3851D01*
G01X323132D02*
G03X322364I-384J-321D01*
G01X313132D02*
G03X322364I4616J3851D01*
G01X313132D02*
G03X312364I-384J-321D01*
G01X303897Y292285D02*
G03X312364Y283818I3851J-4616D01*
G01X303897Y292285D02*
G03Y293053I-321J384D01*
G01X312364Y301521D02*
G03X303897Y293053I-4616J-3852D01*
G01X312364Y301521D02*
G03X313132I384J320D01*
G01X322364D02*
G03X313132I-4616J-3852D01*
G01X322364D02*
G03X323132I384J320D01*
G01X332364D02*
G03X323132I-4616J-3852D01*
G01X332364D02*
G03X333132I384J320D01*
G01X342364D02*
G03X333132I-4616J-3852D01*
G01X342364D02*
G03X343132I384J320D01*
G01X364673Y312330D02*
G03X366034Y319409I5406J2631D01*
G01X364673Y312330D02*
G03X363887Y312481I-450J-219D01*
G01X353921Y315891D02*
G03X363887Y312481I5922J1038D01*
G01X353921Y315891D02*
G03X353782Y316158I-492J-87D01*
G01X352870Y317070*
G03X352516Y317217I-354J-353*
G01X287205*
G03X286917Y317126I-0J-500*
G01Y326969D02*
G03Y317126I-3452J-4922D01*
G01Y326969D02*
G03X287205Y326878I288J409D01*
G01X354724*
X358140Y325463D02*
G03X354724Y326878I-3416J-3416D01*
G01X358140Y325463D02*
X360614Y322990D01*
G03X360881Y322851I353J353*
G01X365248Y319560D02*
G03X360881Y322851I-5405J-2631D01*
G01X365248Y319560D02*
G03X366034Y319409I450J219D01*
G01X359291Y340771D02*
G03X367447Y349425I4725J3717D01*
G01X359291Y340771D02*
G03X358505I-393J-309D01*
G01X349054D02*
G03X358505I4726J3717D01*
G01X349054D02*
G03X348268I-393J-309D01*
G01X338818D02*
G03X348268I4725J3717D01*
G01X338818D02*
G03X338032I-393J-309D01*
G01X328582D02*
G03X338032I4725J3717D01*
G01X328582D02*
G03X327796I-393J-309D01*
G01X318346D02*
G03X327796I4725J3717D01*
G01X318346D02*
G03X317560I-393J-309D01*
G01X308110D02*
G03X317560I4725J3717D01*
G01X308110D02*
G03X307324I-393J-309D01*
G01X297873D02*
G03X307324I4725J3717D01*
G01X297873D02*
G03X297087I-393J-309D01*
G01X288495Y349091D02*
G03X297087Y340771I3867J-4603D01*
G01X288495Y349091D02*
G03X288673Y349474I-322J383D01*
G01Y360179*
G03X288477Y360577I-500J0*
G01X296851Y369071D02*
G03X288477Y360577I-4725J-3717D01*
G01X296851Y369071D02*
G03X297637I393J309D01*
G01X307087D02*
G03X297637I-4725J-3717D01*
G01X307087D02*
G03X307873I393J309D01*
G01X317324D02*
G03X307873I-4726J-3717D01*
G01X317324D02*
G03X318110I393J309D01*
G01X327560D02*
G03X318110I-4725J-3717D01*
G01X327560D02*
G03X328346I393J309D01*
G01X337796D02*
G03X328346I-4725J-3717D01*
G01X337796D02*
G03X338582I393J309D01*
G01X348032D02*
G03X338582I-4725J-3717D01*
G01X348032D02*
G03X348818I393J309D01*
G01X358268D02*
G03X348818I-4725J-3717D01*
G01X358268D02*
G03X359054I393J309D01*
G01X367429Y360577D02*
G03X359054Y369071I-3649J4777D01*
G01X367429Y360577D02*
G03X367232Y360179I303J-398D01*
G01Y349835*
G03X367447Y349425I500J0*
G01X251600Y293053D02*
G03X243132Y301521I-3852J4616D01*
G01X251600Y293053D02*
G03Y292285I320J-384D01*
G01X243132Y283818D02*
G03X251600Y292285I4616J3851D01*
G01X243132Y283818D02*
G03X242364I-384J-321D01*
G01X233132D02*
G03X242364I4616J3851D01*
G01X233132D02*
G03X232364I-384J-321D01*
G01X223132D02*
G03X232364I4616J3851D01*
G01X223132D02*
G03X222364I-384J-321D01*
G01X213132D02*
G03X222364I4616J3851D01*
G01X213132D02*
G03X212364I-384J-321D01*
G01X203897Y292285D02*
G03X212364Y283818I3851J-4616D01*
G01X203897Y292285D02*
G03Y293053I-321J384D01*
G01X212364Y301521D02*
G03X203897Y293053I-4616J-3852D01*
G01X212364Y301521D02*
G03X213132I384J320D01*
G01X222364D02*
G03X213132I-4616J-3852D01*
G01X222364D02*
G03X223132I384J320D01*
G01X232364D02*
G03X223132I-4616J-3852D01*
G01X232364D02*
G03X233132I384J320D01*
G01X242364D02*
G03X233132I-4616J-3852D01*
G01X242364D02*
G03X243132I384J320D01*
G01X211012Y322500D02*
G03X211012I-6012J0D01*
G01X277665Y360970D02*
G03X269291Y369465I-3649J4778D01*
G01X277665Y360970D02*
G03X277469Y360573I304J-397D01*
G01Y349663*
G03X277665Y349266I500J0*
G01X269291Y340771D02*
G03X277665Y349266I4725J3717D01*
G01X269291Y340771D02*
G03X268505I-393J-309D01*
G01X259054D02*
G03X268505I4726J3717D01*
G01X259054D02*
G03X258268I-393J-309D01*
G01X248818D02*
G03X258268I4725J3717D01*
G01X248818D02*
G03X248032I-393J-309D01*
G01X238582D02*
G03X248032I4725J3717D01*
G01X238582D02*
G03X237796I-393J-309D01*
G01X228346D02*
G03X237796I4725J3717D01*
G01X228346D02*
G03X227560I-393J-309D01*
G01X218110D02*
G03X227560I4725J3717D01*
G01X218110D02*
G03X217324I-393J-309D01*
G01X207873D02*
G03X217324I4725J3717D01*
G01X207873D02*
G03X207087I-393J-309D01*
G01X198713Y349266D02*
G03X207087Y340771I3649J-4778D01*
G01X198713Y349266D02*
G03X198909Y349663I-304J397D01*
G01Y360573*
G03X198713Y360970I-500J0*
G01X207087Y369465D02*
G03X198713Y360970I-4725J-3717D01*
G01X207087Y369465D02*
G03X207873I393J309D01*
G01X217324D02*
G03X207873I-4726J-3717D01*
G01X217324D02*
G03X218110I393J309D01*
G01X227560D02*
G03X218110I-4725J-3717D01*
G01X227560D02*
G03X228346I393J309D01*
G01X237796D02*
G03X228346I-4725J-3717D01*
G01X237796D02*
G03X238582I393J309D01*
G01X248032D02*
G03X238582I-4725J-3717D01*
G01X248032D02*
G03X248818I393J309D01*
G01X258268D02*
G03X248818I-4725J-3717D01*
G01X258268D02*
G03X259054I393J309D01*
G01X268505D02*
G03X259054I-4725J-3717D01*
G01X268505D02*
G03X269291I393J309D01*
G01X182667Y185459D02*
Y175959D01*
X180199Y173490D02*
G03X182667Y175959I-0J2469D01*
G01X180199Y173490D02*
X168199D01*
X165730Y175959D02*
G03X168199Y173490I2469J-0D01*
G01X165730Y175959D02*
Y185459D01*
X168199Y187927D02*
G03X165730Y185459I-0J-2468D01*
G01X168199Y187927D02*
X180199D01*
X182667Y185459D02*
G03X180199Y187927I-2468J-0D01*
G01X178256Y305118D02*
Y288189D01*
X177245Y285747D02*
G03X178256Y288189I-2442J2442D01*
G01X177245Y285747D02*
X165827Y274330D01*
X163386Y273319D02*
G03X165827Y274330I-0J3453D01*
G01X163386Y273319D02*
X142670D01*
G03X142260Y273105I0J-500*
G01X131768Y280456D02*
G03X142260Y273105I5240J-3684D01*
G01X131768Y280456D02*
G03X131226Y281225I-409J287D01*
G01X134768Y283718D02*
G03X131226Y281225I-5240J3684D01*
G01X134768Y283718D02*
G03X135309Y282948I409J-288D01*
G01X142260Y280438D02*
G03X135309Y282948I-5252J-3666D01*
G01X142260Y280438D02*
G03X142670Y280224I410J286D01*
G01X145877*
G03X146004Y281208I-0J500*
G01X149272D02*
G03X146004I-1634J6194D01*
G01X149272D02*
G03X149399Y280224I127J-484D01*
G01X161749*
G03X162102Y280371I-0J500*
G01X171204Y289473*
G03X171350Y289826I-354J353*
G01Y303481*
G03X171204Y303834I-500J-0*
G01X170362Y304676*
G03X169508Y304323I-354J-353*
G01Y293307*
X167040Y290839D02*
G03X169508Y293307I-0J2468D01*
G01X167040Y290839D02*
X160347D01*
X157878Y293307D02*
G03X160347Y290839I2469J0D01*
G01X157878Y293307D02*
Y294257D01*
G03X157101Y294673I-500J0*
G01Y305327D02*
G03Y294673I-3558J-5327D01*
G01Y305327D02*
G03X157878Y305743I277J416D01*
G01Y308590*
X160347Y311058D02*
G03X157878Y308590I-0J-2468D01*
G01X160347Y311058D02*
X162773D01*
G03X163126Y311912I-0J500*
G01X142047Y332992*
X141035Y335433D02*
G03X142047Y332992I3453J0D01*
G01X141035Y335433D02*
Y348102D01*
G03X140836Y348502I-500J0*
G01X148935Y356702D02*
G03X140836Y348502I-4604J-3552D01*
G01X148935Y356702D02*
G03X149727I396J305D01*
G01X158621Y357075D02*
G03X149727Y356702I-4290J-3925D01*
G01X158621Y357075D02*
G03X159490Y357412I369J337D01*
G01Y357695*
X161959Y360164D02*
G03X159490Y357695I-0J-2469D01*
G01X161959Y360164D02*
X170620D01*
X173089Y357695D02*
G03X170620Y360164I-2469J0D01*
G01X173089Y357695D02*
Y349213D01*
X170620Y346744D02*
G03X173089Y349213I0J2469D01*
G01X170620Y346744D02*
X161959D01*
X159503Y348957D02*
G03X161959Y346744I2456J256D01*
G01X159503Y348957D02*
G03X158636Y349241I-497J-52D01*
G01X149727Y349598D02*
G03X158636Y349241I4604J3552D01*
G01X149727Y349598D02*
G03X148935I-396J-306D01*
G01X148116Y348735D02*
G03X148935Y349598I-3785J4415D01*
G01X148116Y348735D02*
G03X147941Y348355I325J-380D01*
G01Y337070*
G03X148087Y336717I500J0*
G01X177245Y307560*
X178256Y305118D02*
G03X177245Y307560I-3453J0D01*
G01X135933Y312598D02*
G03X135933I-6405J0D01*
G01X154043D02*
G03X154043I-6405J0D01*
G01X196850Y150614D02*
G03Y158048I4725J3717D01*
G01Y150614D02*
G03X196064I-393J-309D01*
G01X186613D02*
G03X196064I4726J3717D01*
G01X186613D02*
G03X185827I-393J-309D01*
G01X176377D02*
G03X185827I4725J3717D01*
G01X176377D02*
G03X175591I-393J-309D01*
G01X166141D02*
G03X175591I4725J3717D01*
G01X166141D02*
G03X165355I-393J-309D01*
G01X155905D02*
G03X165355I4725J3717D01*
G01X155905D02*
G03X155119I-393J-309D01*
G01X145669D02*
G03X155119I4725J3717D01*
G01X145669D02*
G03X144883I-393J-309D01*
G01X135432D02*
G03X144883I4725J3717D01*
G01X135432D02*
G03X134646I-393J-309D01*
G01Y158048D02*
G03Y150614I-4725J-3717D01*
G01Y158048D02*
G03X135432I393J309D01*
G01X144883D02*
G03X135432I-4726J-3717D01*
G01X144883D02*
G03X145669I393J309D01*
G01X148868Y160146D02*
G03X145669Y158048I1526J-5815D01*
G01X148868Y160146D02*
G03X149095Y160983I-127J483D01*
G01X141259Y168818*
X140248Y171260D02*
G03X141259Y168818I3453J-0D01*
G01X140248Y171260D02*
Y172990D01*
G03X139748Y173490I-500J0*
G01X138699*
X136230Y175959D02*
G03X138699Y173490I2469J-0D01*
G01X136230Y175959D02*
Y185459D01*
X138699Y187927D02*
G03X136230Y185459I-0J-2468D01*
G01X138699Y187927D02*
X140746D01*
G03X141246Y188427I0J500*
G01Y195070*
G03X141073Y195448I-500J-0*
G01X150147Y203107D02*
G03X141073Y195448I-5147J-3107D01*
G01X150147Y203107D02*
G03X151075Y203365I428J258D01*
G01Y205877*
G03X150928Y206230I-500J-0*
G01X144838Y212320*
G03X144485Y212467I-353J-353*
G01X138305*
X135837Y214935D02*
G03X138305Y212467I2468J0D01*
G01X135837Y214935D02*
Y224435D01*
X138305Y226904D02*
G03X135837Y224435I0J-2469D01*
G01X138305Y226904D02*
X138974D01*
G03X139474Y227404I0J500*
G01Y227896*
G03X139328Y228250I-500J0*
G01X136696Y230882*
G03X136391Y231026I-354J-354*
G01X139798Y243168D02*
G03X136391Y231026I-2790J-5766D01*
G01X139798Y243168D02*
G03X140369Y243264I218J450D01*
G01X147765Y250660*
X151181Y252075D02*
G03X147765Y250660I0J-4831D01*
G01X151181Y252075D02*
X166620D01*
G03X166946Y252196I0J500*
G01X175277Y251723D02*
G03X166946Y252196I-4411J-4085D01*
G01X175277Y251723D02*
G03X175643Y251563I366J340D01*
G01X183347*
G03X183634Y251654I-0J500*
G01X185589Y240910D02*
G03X183634Y251654I1498J5822D01*
G01X185589Y240910D02*
G03X185038Y240163I-125J-484D01*
G01X175484Y241064D02*
G03X185038Y240163I4437J-4056D01*
G01X175484Y241064D02*
G03X175115Y241902I-369J338D01*
G01X172741*
G03X172597Y241880I-0J-500*
G01X168000Y242353D02*
G03X172597Y241880I2866J5285D01*
G01X168000Y242353D02*
G03X167762Y242413I-238J-440D01*
G01X156645*
G03X156316Y241537I-0J-500*
G01X158321Y236210D02*
G03X156316Y241537I-5959J798D01*
G01X158321Y236210D02*
G03X158463Y235790I495J-66D01*
G01X162284Y231969*
X163295Y229528D02*
G03X162284Y231969I-3452J-0D01*
G01X163295Y229528D02*
Y217779D01*
G03X163442Y217425I500J0*
G01X164483Y216384*
G03X165337Y216738I354J354*
G01Y224435*
X167805Y226904D02*
G03X165337Y224435I0J-2469D01*
G01X167805Y226904D02*
X179805D01*
X182274Y224435D02*
G03X179805Y226904I-2469J0D01*
G01X182274Y224435D02*
Y214935D01*
X179805Y212467D02*
G03X182274Y214935I0J2468D01*
G01X179805Y212467D02*
X169475D01*
G03X169054Y211698I0J-500*
G01X169595Y209843D02*
G03X169054Y211698I-3453J-0D01*
G01X169595Y209843D02*
Y203206D01*
G03X169791Y202809I500J0*
G01X161613Y194078D02*
G03X169791Y202809I4529J3953D01*
G01X161613Y194078D02*
G03X160736Y193749I-377J-329D01*
G01Y177405*
G03X160883Y177051I500J-0*
G01X174282Y163652*
X175697Y160236D02*
G03X174282Y163652I-4831J0D01*
G01X175697Y160236D02*
Y158613D01*
G03X176574Y158284I500J0*
G01X185827Y158048D02*
G03X176574Y158284I-4725J-3717D01*
G01X185827Y158048D02*
G03X186613I393J309D01*
G01X196064D02*
G03X186613I-4725J-3717D01*
G01X196064D02*
G03X196850I393J309D01*
G01X252100Y216053D02*
G03X243632Y224521I-3852J4616D01*
G01X252100Y216053D02*
G03Y215285I320J-384D01*
G01X243632Y206818D02*
G03X252100Y215285I4616J3851D01*
G01X243632Y206818D02*
G03X242864I-384J-321D01*
G01X233632D02*
G03X242864I4616J3851D01*
G01X233632D02*
G03X232864I-384J-321D01*
G01X223632D02*
G03X232864I4616J3851D01*
G01X223632D02*
G03X222864I-384J-321D01*
G01X213632D02*
G03X222864I4616J3851D01*
G01X213632D02*
G03X212864I-384J-321D01*
G01X204397Y215285D02*
G03X212864Y206818I3851J-4616D01*
G01X204397Y215285D02*
G03Y216053I-321J384D01*
G01X212864Y224521D02*
G03X204397Y216053I-4616J-3852D01*
G01X212864Y224521D02*
G03X213632I384J320D01*
G01X222864D02*
G03X213632I-4616J-3852D01*
G01X222864D02*
G03X223632I384J320D01*
G01X232864D02*
G03X223632I-4616J-3852D01*
G01X232864D02*
G03X233632I384J320D01*
G01X242864D02*
G03X233632I-4616J-3852D01*
G01X242864D02*
G03X243632I384J320D01*
G01X352100Y214803D02*
G03X343632Y223271I-3852J4616D01*
G01X352100Y214803D02*
G03Y214035I320J-384D01*
G01X343632Y205568D02*
G03X352100Y214035I4616J3851D01*
G01X343632Y205568D02*
G03X342864I-384J-321D01*
G01X333632D02*
G03X342864I4616J3851D01*
G01X333632D02*
G03X332864I-384J-321D01*
G01X323632D02*
G03X332864I4616J3851D01*
G01X323632D02*
G03X322864I-384J-321D01*
G01X313632D02*
G03X322864I4616J3851D01*
G01X313632D02*
G03X312864I-384J-321D01*
G01X304397Y214035D02*
G03X312864Y205568I3851J-4616D01*
G01X304397Y214035D02*
G03Y214803I-321J384D01*
G01X312864Y223271D02*
G03X304397Y214803I-4616J-3852D01*
G01X312864Y223271D02*
G03X313632I384J320D01*
G01X322864D02*
G03X313632I-4616J-3852D01*
G01X322864D02*
G03X323632I384J320D01*
G01X332864D02*
G03X323632I-4616J-3852D01*
G01X332864D02*
G03X333632I384J320D01*
G01X342864D02*
G03X333632I-4616J-3852D01*
G01X342864D02*
G03X343632I384J320D01*
G01X331209Y240551D02*
G03X331209I-6012J0D01*
G01X406406Y155512D02*
G03X406406I-6406J0D01*
G01X380298Y150771D02*
G03Y158205I4726J3717D01*
G01Y150771D02*
G03X379513I-392J-309D01*
G01X370062D02*
G03X379513I4725J3717D01*
G01X370062D02*
G03X369276I-393J-309D01*
G01X359826D02*
G03X369276I4725J3717D01*
G01X359826D02*
G03X359040I-393J-309D01*
G01X349590D02*
G03X359040I4725J3717D01*
G01X349590D02*
G03X348804I-393J-309D01*
G01X339354D02*
G03X348804I4725J3717D01*
G01X339354D02*
G03X338568I-393J-309D01*
G01X329117D02*
G03X338568I4726J3717D01*
G01X329117D02*
G03X328331I-393J-309D01*
G01X318881D02*
G03X328331I4725J3717D01*
G01X318881D02*
G03X318095I-393J-309D01*
G01X307428Y155401D02*
G03X318095Y150771I5942J-913D01*
G01X307428Y155401D02*
G03X307294Y155823I-494J76D01*
G01X300605Y162775*
G03X299773Y162592I-360J-347*
G01X297869Y159888D02*
G03X299773Y162592I-3775J4679D01*
G01X297869Y159888D02*
G03X297864Y159114I314J-389D01*
G01X289299Y150771D02*
G03X297864Y159114I4725J3717D01*
G01X289298Y150771D02*
G03X288513I-392J-309D01*
G01X279062D02*
G03X288513I4725J3717D01*
G01X279062D02*
G03X278276I-393J-309D01*
G01X268826D02*
G03X278276I4725J3717D01*
G01X268826D02*
G03X268040I-393J-309D01*
G01X258590D02*
G03X268040I4725J3717D01*
G01X258590D02*
G03X257804I-393J-309D01*
G01X248354D02*
G03X257804I4725J3717D01*
G01X248354D02*
G03X247568I-393J-309D01*
G01X238117D02*
G03X247568I4726J3717D01*
G01X238117D02*
G03X237331I-393J-309D01*
G01X227881D02*
G03X237331I4725J3717D01*
G01X227881D02*
G03X227095I-393J-309D01*
G01X218721Y159266D02*
G03X227095Y150771I3649J-4778D01*
G01X218721Y159266D02*
G03X218917Y159663I-304J397D01*
G01Y176347*
G03X218771Y176701I-500J-0*
G01X209466Y186006*
G03X209046Y186148I-354J-354*
G01X212864Y195958D02*
G03X209046Y186148I-4616J-3852D01*
G01X212864Y195958D02*
G03X213632I384J320D01*
G01X222864D02*
G03X213632I-4616J-3852D01*
G01X222864D02*
G03X223632I384J320D01*
G01X232864D02*
G03X223632I-4616J-3852D01*
G01X232864D02*
G03X233632I384J320D01*
G01X242864D02*
G03X233632I-4616J-3852D01*
G01X242864D02*
G03X243632I384J320D01*
G01X254207Y191308D02*
G03X243632Y195958I-5959J798D01*
G01X254207Y191308D02*
G03X254349Y190889I495J-66D01*
G01X265756Y179481*
X266768Y177039D02*
G03X265756Y179481I-3453J0D01*
G01X266768Y177039D02*
Y159663D01*
G03X266964Y159266I500J0*
G01X268040Y158205D02*
G03X266964Y159266I-4725J-3717D01*
G01X268040Y158205D02*
G03X268826I393J309D01*
G01X269622Y159038D02*
G03X268826Y158205I3929J-4550D01*
G01X269622Y159038D02*
G03X269795Y159417I-327J379D01*
G01Y179431*
G03X269599Y179829I-500J0*
G01X271966Y190480D02*
G03X269599Y179829I1282J-5874D01*
G01X271966Y190480D02*
G03X272213Y191322I-107J488D01*
G01X270307Y193228*
X269295Y195669D02*
G03X270307Y193228I3453J0D01*
G01X269295Y195669D02*
Y233489D01*
G03X269149Y233842I-500J-0*
G01X258952Y244039*
G03X258599Y244185I-353J-354*
G01X229717*
X227275Y245196D02*
G03X229717Y244185I2442J2442D01*
G01X227275Y245196D02*
X208966Y263506D01*
G03X208546Y263648I-354J-354*
G01X212595Y273163D02*
G03X208546Y263648I-4847J-3557D01*
G01X212595Y273163D02*
G03X213401I403J296D01*
G01X222864Y273458D02*
G03X213401Y273163I-4616J-3852D01*
G01X222864Y273458D02*
G03X223632I384J320D01*
G01X232864D02*
G03X223632I-4616J-3852D01*
G01X232864D02*
G03X233632I384J320D01*
G01X242864D02*
G03X233632I-4616J-3852D01*
G01X242864D02*
G03X243632I384J320D01*
G01X253026Y273256D02*
G03X243632Y273458I-4778J-3650D01*
G01X253026Y273256D02*
G03X253423Y273059I397J303D01*
G01X269748*
X274016*
X276457Y272048D02*
G03X274016Y273059I-2441J-2442D01*
G01X276457Y272048D02*
X293321Y255184D01*
G03X293556Y255052I353J354*
G01X286632Y251654D02*
G03X293556Y255052I5494J-2441D01*
G01X286632Y251654D02*
G03X286529Y252210I-457J203D01*
G01X282840Y255899*
G03X281987Y255573I-354J-353*
G01X278063Y250264D02*
G03X281987Y255573I-2079J5642D01*
G01X278063Y250264D02*
G03X277882Y249442I173J-469D01*
G01X285190Y242134*
X286201Y239693D02*
G03X285190Y242134I-3453J-0D01*
G01X286201Y239693D02*
Y200244D01*
G03X286347Y199890I500J-0*
G01X290190Y196048*
X299315Y186922*
G03X299669Y186776I354J354*
G01X305008*
X307449Y185764D02*
G03X305008Y186776I-2441J-2441D01*
G01X307449Y185764D02*
X317642Y175572D01*
G03X318488Y175839I353J354*
G01X321807Y180223D02*
G03X318488Y175839I2602J-5420D01*
G01X321807Y180223D02*
G03X321944Y181027I-216J450D01*
G01X316966Y186006*
G03X316546Y186148I-354J-354*
G01X321707Y191308D02*
G03X316546Y186148I-5959J798D01*
G01X321707Y191308D02*
G03X321849Y190889I495J-66D01*
G01X327248Y185489*
G03X327602Y185343I354J354*
G01X338173*
X340615Y184331D02*
G03X338173Y185343I-2442J-2441D01*
G01X340615Y184331D02*
X348782Y176164D01*
G03X349625Y176416I353J354*
G01X361470Y174399D02*
G03X349625Y176416I-5958J798D01*
G01X361470Y174399D02*
G03X361612Y173979I496J-66D01*
G01X374967Y160625*
G03X375280Y160480I354J353*
G01X379513Y158205D02*
G03X375280Y160480I-4726J-3717D01*
G01X379513Y158205D02*
G03X380298I393J309D01*
G01X425868Y167314D02*
G03Y174418I4604J3552D01*
G01Y167314D02*
G03X425077I-396J-305D01*
G01X414700Y171565D02*
G03X425077Y167314I5772J-699D01*
G01X414700Y171565D02*
G03X413850Y171979I-497J60D01*
G01X412077Y170206*
X408661Y168791D02*
G03X412077Y170206I0J4831D01*
G01X408661Y168791D02*
X381890D01*
X378474Y170206D02*
G03X381890Y168791I3416J3416D01*
G01X378474Y170206D02*
X373750Y174931D01*
X372335Y178346D02*
G03X373750Y174931I4830J0D01*
G01X372335Y178346D02*
Y230075D01*
G03X372188Y230429I-500J0*
G01X367437Y235180*
G03X367083Y235327I-354J-353*
G01X366338*
G03X366051Y235236I0J-500*
G01X357713Y243662D02*
G03X366051Y235236I4885J-3505D01*
G01X357713Y243662D02*
G03X357807Y243953I-406J291D01*
G01Y252910*
G03X357661Y253264I-500J0*
G01X352082Y258842*
G03X351729Y258988I-353J-354*
G01X301207*
G03X300963Y258925I0J-500*
G01X301909Y268768D02*
G03X300963Y258925I-3878J-4595D01*
G01X301909Y268768D02*
G03X302231Y268650I322J382D01*
G01X353937*
X357353Y267235D02*
G03X353937Y268650I-3416J-3416D01*
G01X357353Y267235D02*
X366054Y258534D01*
X367469Y255118D02*
G03X366054Y258534I-4831J0D01*
G01X367469Y255118D02*
Y245488D01*
G03X367969Y244988I500J0*
G01X369291*
X372707Y243573D02*
G03X369291Y244988I-3416J-3416D01*
G01X372707Y243573D02*
X380581Y235699D01*
X381996Y232283D02*
G03X380581Y235699I-4831J0D01*
G01X381996Y232283D02*
Y180555D01*
G03X382143Y180201I500J-0*
G01X383744Y178599*
G03X384098Y178453I354J354*
G01X387101*
G03X387548Y179178I0J500*
G01X389196Y186615D02*
G03X387548Y179178I3717J-4725D01*
G01X389196Y186615D02*
G03Y187401I-309J393D01*
G01Y196851D02*
G03Y187401I3717J-4725D01*
G01Y196851D02*
G03Y197637I-309J393D01*
G01Y207087D02*
G03Y197637I3717J-4725D01*
G01Y207087D02*
G03Y207873I-309J393D01*
G01Y217324D02*
G03Y207873I3717J-4726D01*
G01Y217324D02*
G03Y218110I-309J393D01*
G01Y227560D02*
G03Y218110I3717J-4725D01*
G01Y227560D02*
G03Y228346I-309J393D01*
G01Y237796D02*
G03Y228346I3717J-4725D01*
G01Y237796D02*
G03Y238582I-309J393D01*
G01Y248032D02*
G03Y238582I3717J-4725D01*
G01Y248032D02*
G03Y248818I-309J393D01*
G01X388926Y258042D02*
G03X389196Y248818I3987J-4499D01*
G01X388926Y258042D02*
G03X388922Y258794I-332J374D01*
G01X389149Y268056D02*
G03X388922Y258794I3717J-4725D01*
G01X389149Y268056D02*
G03Y268842I-309J393D01*
G01Y278292D02*
G03Y268842I3717J-4725D01*
G01Y278292D02*
G03Y279078I-309J393D01*
G01Y288528D02*
G03Y279078I3717J-4725D01*
G01Y288528D02*
G03Y289314I-309J393D01*
G01Y298764D02*
G03Y289314I3717J-4725D01*
G01Y298764D02*
G03Y299550I-309J393D01*
G01Y309001D02*
G03Y299550I3717J-4725D01*
G01Y309001D02*
G03Y309787I-309J393D01*
G01Y319237D02*
G03Y309787I3717J-4725D01*
G01Y319237D02*
G03Y320023I-309J393D01*
G01Y329473D02*
G03Y320023I3717J-4725D01*
G01Y329473D02*
G03Y330259I-309J393D01*
G01X397410Y338921D02*
G03X389149Y330259I-4544J-3937D01*
G01X397410Y338921D02*
G03X398165I377J328D01*
G01X406426Y330259D02*
G03X398165Y338921I-3717J4725D01*
G01X406426Y330259D02*
G03Y329473I309J-393D01*
G01Y320023D02*
G03Y329473I-3717J4725D01*
G01Y320023D02*
G03Y319237I309J-393D01*
G01Y309787D02*
G03Y319237I-3717J4725D01*
G01Y309787D02*
G03Y309001I309J-393D01*
G01X407920Y307272D02*
G03X406426Y309001I-5211J-2996D01*
G01X407920Y307272D02*
G03X408672Y307136I434J249D01*
G01X417421Y299047D02*
G03X408672Y307136I-4921J3453D01*
G01X417421Y299047D02*
G03X417331Y298760I410J-287D01*
G01Y177461*
X417262Y176651D02*
G03X417331Y177461I-4762J810D01*
G01X417262Y176650D02*
G03X417970Y176115I493J-83D01*
G01X425077Y174418D02*
G03X417970Y176115I-4605J-3552D01*
G01X425077Y174418D02*
G03X425868I395J305D01*
G01X117429Y374093D02*
X470366D01*
X117429Y373193D02*
X470366D01*
X117429Y372293D02*
X470366D01*
X276083Y371393D02*
X470366D01*
X366900Y370493D02*
X470366D01*
X368043Y369593D02*
X470366D01*
X368779Y368693D02*
X470366D01*
X369274Y367793D02*
X470366D01*
X369591Y366893D02*
X470366D01*
X369757Y365993D02*
X470366D01*
X369786Y365093D02*
X470366D01*
X369678Y364193D02*
X470366D01*
X369427Y363293D02*
X470366D01*
X369012Y362393D02*
X470366D01*
X368388Y361493D02*
X470366D01*
X367450Y360593D02*
X470366D01*
X367232Y359693D02*
X470366D01*
X367232Y358793D02*
X470366D01*
X440156Y357893D02*
X470366D01*
X441494Y356993D02*
X470366D01*
X442320Y356093D02*
X470366D01*
X442875Y355193D02*
X470366D01*
X443238Y354293D02*
X470366D01*
X443445Y353393D02*
X470366D01*
X443512Y352493D02*
X470366D01*
X443443Y351593D02*
X470366D01*
X443234Y350693D02*
X470366D01*
X442868Y349793D02*
X470366D01*
X442310Y348893D02*
X470366D01*
X441479Y347993D02*
X470366D01*
X440953Y347093D02*
X470366D01*
X440953Y346193D02*
X470366D01*
X440953Y345293D02*
X470366D01*
X440953Y344393D02*
X470366D01*
X440953Y343493D02*
X470366D01*
X440953Y342593D02*
X470366D01*
X440953Y341693D02*
X470366D01*
X440953Y340793D02*
X470366D01*
X440953Y339893D02*
X470366D01*
X440953Y338993D02*
X470366D01*
X435170Y174293D02*
X470366D01*
X435710Y173393D02*
X470366D01*
X436055Y172493D02*
X470366D01*
X436242Y171593D02*
X470366D01*
X436285Y170693D02*
X470366D01*
X436188Y169793D02*
X470366D01*
X435942Y168893D02*
X470366D01*
X435528Y167993D02*
X470366D01*
X434897Y167093D02*
X470366D01*
X433933Y166193D02*
X470366D01*
X432133Y165293D02*
X470366D01*
X371198Y164393D02*
X470366D01*
X372098Y163493D02*
X470366D01*
X372998Y162593D02*
X470366D01*
X441050Y161693D02*
X470366D01*
X442995Y160793D02*
X470366D01*
X444043Y159893D02*
X470366D01*
X444747Y158993D02*
X470366D01*
X445232Y158093D02*
X470366D01*
X445551Y157193D02*
X470366D01*
X445728Y156293D02*
X470366D01*
X445775Y155393D02*
X470366D01*
X445694Y154493D02*
X470366D01*
X445482Y153593D02*
X470366D01*
X445122Y152693D02*
X470366D01*
X444586Y151793D02*
X470366D01*
X443808Y150893D02*
X470366D01*
X442622Y149993D02*
X470366D01*
X387676Y149093D02*
X470366D01*
X117429Y148193D02*
X470366D01*
X117429Y147293D02*
X470366D01*
X117429Y146393D02*
X470366D01*
X117429Y145493D02*
X470366D01*
X117429Y374993D02*
X470366D01*
X468841Y338093D02*
X470351D01*
X434357Y175193D02*
X470322D01*
X418368Y301193D02*
X456188D01*
X418498Y302093D02*
X455486D01*
X440953Y338093D02*
X455390D01*
X418492Y302993D02*
X455004D01*
X450807Y176093D02*
X454914D01*
X453668Y306593D02*
X454905D01*
X452643Y305693D02*
X454905D01*
X450653Y304793D02*
X454905D01*
X418348Y303893D02*
X454905D01*
X450776Y300293D02*
X454480D01*
X452701Y176993D02*
X454362D01*
X440953Y337193D02*
X453956D01*
X452689Y299393D02*
X453703D01*
X452245Y336293D02*
X453515D01*
X418057Y304793D02*
X447772D01*
X418092Y300293D02*
X447649D01*
X433020Y176093D02*
X447618D01*
X440953Y336293D02*
X446180D01*
X417594Y305693D02*
X445782D01*
X417647Y299393D02*
X445737D01*
X417308Y176993D02*
X445725D01*
X417331Y238193D02*
X445687D01*
X417331Y268793D02*
X445676D01*
X417331Y207593D02*
X445674D01*
X417331Y186893D02*
X445673D01*
X417331Y289493D02*
X445671D01*
X441589Y315593D02*
X445662D01*
X417331Y217493D02*
X445634D01*
X417331Y258893D02*
X445630D01*
X417331Y248093D02*
X445560D01*
X417331Y228293D02*
X445553D01*
X440953Y326393D02*
X445476D01*
X417331Y278693D02*
X445436D01*
X417331Y197693D02*
X445425D01*
X417331Y196793D02*
X445423D01*
X417331Y279593D02*
X445413D01*
X440953Y325493D02*
X445374D01*
X417331Y227393D02*
X445293D01*
X417331Y248993D02*
X445283D01*
X417331Y257993D02*
X445170D01*
X417331Y218393D02*
X445161D01*
X442383Y316493D02*
X445087D01*
X417331Y288593D02*
X445054D01*
X417331Y187793D02*
X445045D01*
X417331Y206693D02*
X445043D01*
X417331Y269693D02*
X445034D01*
X440953Y335393D02*
X445002D01*
X417331Y237293D02*
X444933D01*
X417331Y239093D02*
X444925D01*
X417331Y267893D02*
X444829D01*
X417331Y208493D02*
X444821D01*
X417331Y185993D02*
X444819D01*
X417331Y290393D02*
X444811D01*
X440325Y314693D02*
X444782D01*
X416903Y306593D02*
X444758D01*
X417331Y298493D02*
X444729D01*
X417331Y177893D02*
X444722D01*
X417331Y216593D02*
X444720D01*
X417331Y259793D02*
X444712D01*
X417331Y247193D02*
X444626D01*
X417331Y229193D02*
X444619D01*
X440953Y327293D02*
X444562D01*
X417331Y277793D02*
X444536D01*
X417331Y198593D02*
X444529D01*
X417331Y195893D02*
X444527D01*
X417331Y280493D02*
X444521D01*
X441379Y324593D02*
X444495D01*
X417331Y226493D02*
X444442D01*
X417331Y249893D02*
X444436D01*
X417331Y257093D02*
X444361D01*
X417331Y219293D02*
X444355D01*
X442917Y317393D02*
X444305D01*
X417331Y287693D02*
X444283D01*
X417331Y188693D02*
X444277D01*
X417331Y205793D02*
X444276D01*
X417331Y270593D02*
X444270D01*
X440953Y334493D02*
X444248D01*
X417331Y236393D02*
X444202D01*
X417331Y239993D02*
X444197D01*
X417331Y266993D02*
X444132D01*
X417331Y209393D02*
X444126D01*
X417331Y185093D02*
X444125D01*
X417331Y291293D02*
X444120D01*
X408677Y313793D02*
X444100D01*
X415848Y307493D02*
X444084D01*
X417331Y297593D02*
X444065D01*
X417331Y178793D02*
X444060D01*
X417331Y215693D02*
X444059D01*
X417331Y260693D02*
X444053D01*
X417331Y246293D02*
X443995D01*
X417331Y230093D02*
X443990D01*
X440953Y328193D02*
X443952D01*
X417331Y276893D02*
X443934D01*
X417331Y199493D02*
X443930D01*
X417331Y194993D02*
X443929D01*
X417331Y281393D02*
X443924D01*
X442244Y323693D02*
X443907D01*
X417331Y225593D02*
X443871D01*
X417331Y250793D02*
X443867D01*
X417331Y256193D02*
X443816D01*
X417331Y220193D02*
X443812D01*
X417331Y286793D02*
X443764D01*
X417331Y189593D02*
X443760D01*
X417331Y204893D02*
X443759D01*
X417331Y271493D02*
X443756D01*
X440953Y333593D02*
X443741D01*
X417331Y235493D02*
X443710D01*
X417331Y240893D02*
X443707D01*
X417331Y266093D02*
X443664D01*
X417331Y210293D02*
X443660D01*
X417331Y184193D02*
X443660D01*
X417331Y292193D02*
X443656D01*
X408498Y312893D02*
X443643D01*
X413689Y308393D02*
X443632D01*
X417331Y296693D02*
X443620D01*
X417331Y179693D02*
X443616D01*
X417331Y214793D02*
X443616D01*
X417331Y261593D02*
X443612D01*
X417331Y245393D02*
X443574D01*
X417331Y230993D02*
X443571D01*
X440953Y329093D02*
X443546D01*
X417331Y275993D02*
X443535D01*
X417331Y200393D02*
X443532D01*
X417331Y194093D02*
X443532D01*
X417331Y282293D02*
X443529D01*
X417331Y224693D02*
X443495D01*
X417331Y251693D02*
X443493D01*
X417331Y255293D02*
X443461D01*
X417331Y221093D02*
X443459D01*
X417331Y285893D02*
X443429D01*
X417331Y190493D02*
X443427D01*
X417331Y203993D02*
X443426D01*
X417331Y272393D02*
X443424D01*
X440953Y332693D02*
X443415D01*
X417331Y234593D02*
X443397D01*
X417331Y241793D02*
X443395D01*
X442924Y322793D02*
X443374D01*
X417331Y265193D02*
X443369D01*
X417331Y211193D02*
X443367D01*
X417331Y183293D02*
X443367D01*
X417331Y293093D02*
X443365D01*
X408167Y311993D02*
X443357D01*
X406245Y309293D02*
X443351D01*
X417331Y295793D02*
X443344D01*
X417331Y180593D02*
X443342D01*
X417331Y213893D02*
X443342D01*
X417331Y262493D02*
X443340D01*
X417331Y244493D02*
X443319D01*
X417331Y231893D02*
X443317D01*
X440953Y329993D02*
X443304D01*
X417331Y275093D02*
X443298D01*
X417331Y201293D02*
X443297D01*
X417331Y193193D02*
X443296D01*
X417331Y283193D02*
X443295D01*
X417331Y223793D02*
X443278D01*
X417331Y252593D02*
X443276D01*
X417331Y254393D02*
X443261D01*
X417331Y221993D02*
X443260D01*
X417331Y284993D02*
X443247D01*
X417331Y191393D02*
X443246D01*
X417331Y203093D02*
X443245D01*
X417331Y273293D02*
X443244D01*
X440953Y331793D02*
X443241D01*
X417331Y233693D02*
X443233D01*
X417331Y242693D02*
X443232D01*
X417331Y264293D02*
X443223D01*
X417331Y212093D02*
X443222D01*
X417331Y182393D02*
X443222D01*
X417331Y293993D02*
X443221D01*
X407654Y311093D02*
X443219D01*
X406891Y310193D02*
X443217D01*
X417331Y294893D02*
X443214D01*
X417331Y181493D02*
X443214D01*
X417331Y212993D02*
X443214D01*
X417331Y263393D02*
X443213D01*
X417331Y243593D02*
X443208D01*
X417331Y232793D02*
X443207D01*
X440953Y330893D02*
X443204D01*
X417331Y274193D02*
X443203D01*
X417331Y202193D02*
X443203D01*
X417331Y192293D02*
X443203D01*
X417331Y284093D02*
X443203D01*
X417331Y222893D02*
X443201D01*
X417331Y253493D02*
X443201D01*
X401680Y161693D02*
X437690D01*
X403252Y149993D02*
X436118D01*
X403625Y160793D02*
X435745D01*
X404438Y150893D02*
X434932D01*
X367232Y357893D02*
X434844D01*
X404673Y159893D02*
X434697D01*
X408718Y314693D02*
X434675D01*
X405216Y151793D02*
X434154D01*
X369434Y347093D02*
X434047D01*
X369781Y346193D02*
X434047D01*
X369973Y345293D02*
X434047D01*
X370027Y344393D02*
X434047D01*
X369945Y343493D02*
X434047D01*
X369721Y342593D02*
X434047D01*
X369338Y341693D02*
X434047D01*
X404257Y340793D02*
X434047D01*
X406179Y339893D02*
X434047D01*
X407189Y338993D02*
X434047D01*
X407854Y338093D02*
X434047D01*
X408300Y337193D02*
X434047D01*
X408576Y336293D02*
X434047D01*
X417656Y335393D02*
X434047D01*
X418994Y334493D02*
X434047D01*
X419820Y333593D02*
X434047D01*
X420375Y332693D02*
X434047D01*
X420738Y331793D02*
X434047D01*
X420945Y330893D02*
X434047D01*
X421012Y329993D02*
X434047D01*
X420943Y329093D02*
X434047D01*
X420734Y328193D02*
X434047D01*
X420368Y327293D02*
X434047D01*
X419810Y326393D02*
X434047D01*
X418979Y325493D02*
X434047D01*
X405377Y158993D02*
X433993D01*
X417628Y324593D02*
X433621D01*
X405752Y152693D02*
X433618D01*
X368900Y347993D02*
X433521D01*
X405862Y158093D02*
X433508D01*
X367232Y356993D02*
X433506D01*
X408622Y315593D02*
X433411D01*
X406111Y153593D02*
X433259D01*
X406181Y157193D02*
X433189D01*
X406324Y154493D02*
X433046D01*
X406358Y156293D02*
X433012D01*
X406404Y155393D02*
X432966D01*
X408627Y323693D02*
X432756D01*
X368107Y348893D02*
X432690D01*
X367232Y356093D02*
X432680D01*
X408385Y316493D02*
X432617D01*
X408394Y322793D02*
X432176D01*
X367234Y349793D02*
X432132D01*
X367232Y355193D02*
X432125D01*
X407985Y317393D02*
X432083D01*
X407999Y321893D02*
X431794D01*
X367232Y350693D02*
X431766D01*
X367232Y354293D02*
X431762D01*
X407382Y318293D02*
X431736D01*
X407404Y320993D02*
X431571D01*
X367232Y351593D02*
X431557D01*
X367232Y353393D02*
X431555D01*
X406481Y319193D02*
X431543D01*
X406513Y320093D02*
X431489D01*
X367232Y352493D02*
X431488D01*
X422133Y165293D02*
X428812D01*
X423020Y176093D02*
X427924D01*
X423933Y166193D02*
X427012D01*
X424357Y175193D02*
X426588D01*
X424897Y167093D02*
X426048D01*
X425218Y174293D02*
X425727D01*
X370298Y165293D02*
X418812D01*
X417595Y176093D02*
X417916D01*
X369398Y166193D02*
X417012D01*
X368498Y167093D02*
X416048D01*
X367598Y167993D02*
X415417D01*
X409648Y168893D02*
X415002D01*
X411607Y169793D02*
X414757D01*
X413464Y171593D02*
X414702D01*
X412564Y170693D02*
X414660D01*
X408718Y324593D02*
X412372D01*
X408707Y335393D02*
X412344D01*
X407089Y308393D02*
X411311D01*
X408674Y325493D02*
X411021D01*
X408700Y334493D02*
X411006D01*
X408491Y326393D02*
X410190D01*
X408557Y333593D02*
X410180D01*
X408155Y327293D02*
X409632D01*
X408267Y332693D02*
X409625D01*
X407635Y328193D02*
X409266D01*
X407804Y331793D02*
X409262D01*
X407787Y307493D02*
X409152D01*
X406863Y329093D02*
X409057D01*
X407114Y330893D02*
X409055D01*
X406251Y329993D02*
X408988D01*
X394415Y340793D02*
X401160D01*
X396337Y339893D02*
X399238D01*
X373898Y161693D02*
X398320D01*
X397346Y338993D02*
X398229D01*
X389016Y149993D02*
X396748D01*
X374798Y160793D02*
X396375D01*
X389842Y150893D02*
X395562D01*
X387656Y159893D02*
X395327D01*
X390398Y151793D02*
X394784D01*
X389004Y158993D02*
X394623D01*
X390761Y152693D02*
X394248D01*
X389835Y158093D02*
X394138D01*
X390968Y153593D02*
X393889D01*
X390393Y157193D02*
X393819D01*
X391035Y154493D02*
X393676D01*
X390758Y156293D02*
X393642D01*
X390967Y155393D02*
X393596D01*
X368758Y340793D02*
X391317D01*
X367892Y339893D02*
X389396D01*
X378087Y238193D02*
X389387D01*
X381996Y207593D02*
X389374D01*
X381996Y186893D02*
X389374D01*
X170190Y278693D02*
X389340D01*
X381996Y217493D02*
X389335D01*
X372084Y309293D02*
X389330D01*
X154811Y329993D02*
X389324D01*
X353507Y299393D02*
X389281D01*
X367469Y248093D02*
X389261D01*
X381996Y228293D02*
X389254D01*
X353688Y288593D02*
X389217D01*
X301878Y268793D02*
X389203D01*
X381996Y197693D02*
X389126D01*
X381996Y196793D02*
X389124D01*
X374348Y319193D02*
X389094D01*
X373209Y320093D02*
X389062D01*
X381996Y227393D02*
X388994D01*
X367469Y248993D02*
X388984D01*
X356532Y267893D02*
X388951D01*
X353477Y289493D02*
X388932D01*
X366520Y257993D02*
X388871D01*
X381996Y218393D02*
X388862D01*
X353703Y298493D02*
X388828D01*
X365694Y258893D02*
X388810D01*
X381996Y187793D02*
X388746D01*
X381996Y206693D02*
X388744D01*
X155711Y329093D02*
X388711D01*
X373741Y310193D02*
X388684D01*
X378987Y237293D02*
X388634D01*
X377187Y239093D02*
X388626D01*
X169290Y277793D02*
X388591D01*
X171090Y279593D02*
X388574D01*
X381996Y208493D02*
X388521D01*
X381996Y185993D02*
X388520D01*
X176411Y308393D02*
X388486D01*
X153911Y330893D02*
X388461D01*
X381996Y216593D02*
X388421D01*
X366454Y338993D02*
X388386D01*
X353157Y300293D02*
X388363D01*
X367469Y247193D02*
X388326D01*
X381996Y229193D02*
X388319D01*
X353760Y287693D02*
X388282D01*
X300413Y269693D02*
X388269D01*
X381996Y198593D02*
X388230D01*
X381996Y195893D02*
X388228D01*
X375082Y318293D02*
X388192D01*
X364273Y320993D02*
X388171D01*
X381996Y226493D02*
X388143D01*
X367469Y249893D02*
X388136D01*
X357594Y266993D02*
X388099D01*
X353107Y290393D02*
X388086D01*
X367046Y257093D02*
X388062D01*
X381996Y219293D02*
X388055D01*
X353759Y297593D02*
X388017D01*
X364794Y259793D02*
X388005D01*
X381996Y188693D02*
X387978D01*
X381996Y205793D02*
X387977D01*
X206931Y328193D02*
X387939D01*
X374681Y311093D02*
X387921D01*
X379887Y236393D02*
X387903D01*
X376287Y239993D02*
X387897D01*
X168390Y276893D02*
X387858D01*
X171990Y280493D02*
X387848D01*
X381996Y209393D02*
X387827D01*
X381996Y185093D02*
X387826D01*
X177309Y307493D02*
X387788D01*
X153011Y331793D02*
X387771D01*
X381996Y215693D02*
X387759D01*
X147941Y338093D02*
X387721D01*
X352619Y301193D02*
X387705D01*
X367469Y246293D02*
X387696D01*
X381996Y230093D02*
X387691D01*
X353696Y286793D02*
X387651D01*
X277912Y270593D02*
X387641D01*
X381996Y199493D02*
X387630D01*
X381996Y194993D02*
X387629D01*
X375576Y317393D02*
X387590D01*
X363234Y321893D02*
X387575D01*
X383550Y178793D02*
X387575D01*
X381996Y225593D02*
X387572D01*
X367469Y250793D02*
X387567D01*
X358494Y266093D02*
X387527D01*
X352545Y291293D02*
X387518D01*
X367347Y256193D02*
X387517D01*
X381996Y220193D02*
X387513D01*
X353680Y296693D02*
X387472D01*
X363894Y260693D02*
X387464D01*
X381996Y189593D02*
X387461D01*
X381996Y204893D02*
X387460D01*
X286401Y327293D02*
X387420D01*
X380776Y235493D02*
X387411D01*
X375387Y240893D02*
X387407D01*
X375307Y311993D02*
X387407D01*
X167490Y275993D02*
X387366D01*
X381996Y210293D02*
X387361D01*
X381996Y184193D02*
X387360D01*
X172890Y281393D02*
X387358D01*
X177925Y306593D02*
X387319D01*
X382650Y179693D02*
X387317D01*
X381996Y214793D02*
X387316D01*
X152111Y332693D02*
X387308D01*
X367478Y245393D02*
X387275D01*
X147941Y337193D02*
X387275D01*
X381996Y230993D02*
X387272D01*
X351819Y302093D02*
X387264D01*
X381996Y200393D02*
X387233D01*
X381996Y194093D02*
X387233D01*
X353492Y285893D02*
X387229D01*
X277012Y271493D02*
X387223D01*
X381996Y224693D02*
X387196D01*
X367469Y251693D02*
X387193D01*
X375892Y316493D02*
X387190D01*
X361167Y322793D02*
X387181D01*
X367465Y255293D02*
X387162D01*
X381996Y221093D02*
X387159D01*
X359394Y265193D02*
X387150D01*
X351707Y292193D02*
X387145D01*
X381996Y190493D02*
X387128D01*
X381996Y203993D02*
X387127D01*
X353460Y295793D02*
X387116D01*
X362994Y261593D02*
X387111D01*
X381408Y234593D02*
X387097D01*
X374487Y241793D02*
X387095D01*
X356834Y326393D02*
X387084D01*
X375724Y312893D02*
X387076D01*
X381996Y211193D02*
X387068D01*
X381996Y183293D02*
X387068D01*
X250705Y275093D02*
X387051D01*
X350439Y282293D02*
X387047D01*
X381996Y180593D02*
X387043D01*
X381996Y213893D02*
X387043D01*
X178208Y305693D02*
X387024D01*
X371422Y244493D02*
X387020D01*
X381996Y231893D02*
X387018D01*
X151211Y333593D02*
X387017D01*
X148511Y336293D02*
X386999D01*
X381996Y201293D02*
X386997D01*
X381996Y193193D02*
X386997D01*
X350541Y302993D02*
X386993D01*
X381996Y223793D02*
X386978D01*
X367469Y252593D02*
X386977D01*
X353131Y284993D02*
X386973D01*
X276054Y272393D02*
X386970D01*
X367469Y254393D02*
X386962D01*
X381996Y221993D02*
X386961D01*
X376057Y315593D02*
X386952D01*
X359910Y323693D02*
X386948D01*
X381996Y191393D02*
X386946D01*
X381996Y203093D02*
X386946D01*
X381786Y233693D02*
X386934D01*
X373587Y242693D02*
X386933D01*
X360294Y264293D02*
X386932D01*
X351647Y293093D02*
X386929D01*
X381996Y212093D02*
X386923D01*
X381996Y182393D02*
X386923D01*
X353081Y294893D02*
X386915D01*
X381996Y181493D02*
X386915D01*
X381996Y212993D02*
X386915D01*
X362094Y262493D02*
X386913D01*
X372687Y243593D02*
X386908D01*
X381969Y232793D02*
X386908D01*
X381996Y202193D02*
X386904D01*
X381996Y192293D02*
X386904D01*
X381996Y222893D02*
X386902D01*
X367469Y253493D02*
X386902D01*
X358110Y325493D02*
X386901D01*
X375976Y313793D02*
X386897D01*
X252134Y274193D02*
X386887D01*
X351761Y283193D02*
X386885D01*
X178256Y304793D02*
X386877D01*
X150311Y334493D02*
X386874D01*
X149411Y335393D02*
X386868D01*
X178256Y303893D02*
X386866D01*
X352581Y284093D02*
X386861D01*
X252997Y273293D02*
X386861D01*
X376085Y314693D02*
X386857D01*
X359010Y324593D02*
X386856D01*
X361194Y263393D02*
X386855D01*
X352505Y293993D02*
X386854D01*
X377420Y159893D02*
X382391D01*
X377440Y149093D02*
X382371D01*
X378768Y158993D02*
X381043D01*
X378780Y149993D02*
X381032D01*
X366698Y168893D02*
X380903D01*
X379636Y158093D02*
X380175D01*
X379652Y150893D02*
X380159D01*
X365798Y169793D02*
X378944D01*
X364898Y170693D02*
X377987D01*
X363998Y171593D02*
X377087D01*
X363098Y172493D02*
X376187D01*
X362198Y173393D02*
X375287D01*
X361468Y174293D02*
X374387D01*
X361524Y175193D02*
X373506D01*
X361456Y176093D02*
X372892D01*
X361249Y176993D02*
X372528D01*
X360885Y177893D02*
X372356D01*
X286201Y229193D02*
X372335D01*
X286201Y228293D02*
X372335D01*
X286201Y227393D02*
X372335D01*
X286201Y226493D02*
X372335D01*
X286201Y225593D02*
X372335D01*
X351134Y224693D02*
X372335D01*
X352373Y223793D02*
X372335D01*
X353155Y222893D02*
X372335D01*
X353681Y221993D02*
X372335D01*
X354022Y221093D02*
X372335D01*
X354210Y220193D02*
X372335D01*
X354259Y219293D02*
X372335D01*
X354172Y218393D02*
X372335D01*
X353943Y217493D02*
X372335D01*
X353554Y216593D02*
X372335D01*
X352966Y215693D02*
X372335D01*
X352088Y214793D02*
X372335D01*
X352264Y213893D02*
X372335D01*
X353082Y212993D02*
X372335D01*
X353632Y212093D02*
X372335D01*
X353992Y211193D02*
X372335D01*
X354196Y210293D02*
X372335D01*
X354260Y209393D02*
X372335D01*
X354188Y208493D02*
X372335D01*
X353976Y207593D02*
X372335D01*
X353606Y206693D02*
X372335D01*
X353043Y205793D02*
X372335D01*
X352205Y204893D02*
X372335D01*
X350836Y203993D02*
X372335D01*
X286201Y203093D02*
X372335D01*
X286201Y202193D02*
X372335D01*
X286201Y201293D02*
X372335D01*
X286201Y200393D02*
X372335D01*
X286744Y199493D02*
X372335D01*
X287644Y198593D02*
X372335D01*
X317968Y197693D02*
X372335D01*
X319513Y196793D02*
X372335D01*
X320417Y195893D02*
X372335D01*
X321021Y194993D02*
X372335D01*
X321422Y194093D02*
X372335D01*
X321661Y193193D02*
X372335D01*
X321757Y192293D02*
X372335D01*
X321717Y191393D02*
X372335D01*
X322244Y190493D02*
X372335D01*
X323144Y189593D02*
X372335D01*
X324044Y188693D02*
X372335D01*
X324944Y187793D02*
X372335D01*
X325844Y186893D02*
X372335D01*
X326744Y185993D02*
X372335D01*
X339462Y185093D02*
X372335D01*
X340753Y184193D02*
X372335D01*
X341653Y183293D02*
X372335D01*
X342553Y182393D02*
X372335D01*
X343453Y181493D02*
X372335D01*
X358162Y180593D02*
X372335D01*
X359502Y179693D02*
X372335D01*
X360329Y178793D02*
X372335D01*
X286201Y230093D02*
X372334D01*
X367204Y149093D02*
X372135D01*
X286201Y230993D02*
X371624D01*
X368543Y149993D02*
X370795D01*
X286201Y231893D02*
X370724D01*
X369416Y150893D02*
X369923D01*
X286201Y232793D02*
X369824D01*
X286201Y233693D02*
X368924D01*
X175511Y309293D02*
X368073D01*
X364875Y234593D02*
X368024D01*
X364954Y320093D02*
X366948D01*
X174611Y310193D02*
X366416D01*
X361286Y311093D02*
X365476D01*
X363274Y311993D02*
X364850D01*
X356967Y149093D02*
X361899D01*
X356218Y338993D02*
X361577D01*
X356663Y370493D02*
X360660D01*
X358307Y149993D02*
X360559D01*
X326000Y234593D02*
X360322D01*
X357656Y339893D02*
X360139D01*
X359180Y150893D02*
X359686D01*
X357806Y369593D02*
X359516D01*
X358523Y340793D02*
X359272D01*
X328446Y235493D02*
X358805D01*
X173711Y311093D02*
X358399D01*
X329539Y236393D02*
X357911D01*
X297097Y252593D02*
X357807D01*
X297602Y251693D02*
X357807D01*
X297926Y250793D02*
X357807D01*
X298099Y249893D02*
X357807D01*
X298134Y248993D02*
X357807D01*
X298033Y248093D02*
X357807D01*
X297788Y247193D02*
X357807D01*
X326978Y246293D02*
X357807D01*
X328760Y245393D02*
X357807D01*
X329736Y244493D02*
X357807D01*
X330382Y243593D02*
X357665D01*
X296347Y253493D02*
X357431D01*
X330249Y237293D02*
X357313D01*
X330814Y242693D02*
X357148D01*
X330727Y238193D02*
X356917D01*
X331079Y241793D02*
X356813D01*
X331029Y239093D02*
X356682D01*
X331199Y240893D02*
X356632D01*
X331183Y239993D02*
X356589D01*
X295176Y254393D02*
X356531D01*
X172811Y311993D02*
X356411D01*
X293212Y255293D02*
X355631D01*
X171911Y312893D02*
X355387D01*
X292312Y256193D02*
X354731D01*
X171011Y313793D02*
X354713D01*
X170111Y314693D02*
X354262D01*
X169211Y315593D02*
X353981D01*
X291412Y257093D02*
X353831D01*
X285766Y316493D02*
X353447D01*
X290512Y257993D02*
X352931D01*
X344353Y180593D02*
X352862D01*
X300906Y258893D02*
X352022D01*
X346731Y149093D02*
X351662D01*
X345253Y179693D02*
X351521D01*
X345982Y338993D02*
X351341D01*
X346153Y178793D02*
X350694D01*
X346427Y370493D02*
X350423D01*
X348071Y149993D02*
X350323D01*
X347053Y177893D02*
X350139D01*
X347420Y339893D02*
X349903D01*
X347953Y176993D02*
X349775D01*
X348943Y150893D02*
X349450D01*
X348871Y176093D02*
X349399D01*
X347570Y369593D02*
X349280D01*
X348287Y340793D02*
X349036D01*
X340836Y203993D02*
X345660D01*
X341134Y224693D02*
X345362D01*
X340439Y282293D02*
X345057D01*
X340541Y302993D02*
X344955D01*
X342205Y204893D02*
X344291D01*
X342373Y223793D02*
X344124D01*
X341761Y283193D02*
X343735D01*
X341819Y302093D02*
X343677D01*
X336495Y149093D02*
X341426D01*
X335746Y338993D02*
X341105D01*
X336191Y370493D02*
X340187D01*
X337835Y149993D02*
X340087D01*
X337184Y339893D02*
X339667D01*
X338707Y150893D02*
X339214D01*
X337334Y369593D02*
X339044D01*
X338050Y340793D02*
X338800D01*
X330836Y203993D02*
X335660D01*
X331134Y224693D02*
X335362D01*
X330439Y282293D02*
X335057D01*
X330541Y302993D02*
X334955D01*
X332205Y204893D02*
X334291D01*
X332373Y223793D02*
X334124D01*
X331761Y283193D02*
X333735D01*
X331819Y302093D02*
X333677D01*
X326259Y149093D02*
X331190D01*
X325510Y338993D02*
X330868D01*
X325955Y370493D02*
X329951D01*
X327598Y149993D02*
X329850D01*
X326947Y339893D02*
X329430D01*
X328471Y150893D02*
X328978D01*
X327098Y369593D02*
X328808D01*
X327814Y340793D02*
X328564D01*
X320836Y203993D02*
X325660D01*
X321134Y224693D02*
X325362D01*
X320439Y282293D02*
X325057D01*
X320541Y302993D02*
X324955D01*
X286201Y234593D02*
X324394D01*
X322205Y204893D02*
X324291D01*
X322373Y223793D02*
X324124D01*
X321761Y283193D02*
X323735D01*
X321819Y302093D02*
X323677D01*
X297381Y246293D02*
X323416D01*
X312620Y180593D02*
X322084D01*
X286201Y235493D02*
X321947D01*
X296769Y245393D02*
X321634D01*
X311720Y181493D02*
X321478D01*
X316023Y149093D02*
X320954D01*
X313520Y179693D02*
X320912D01*
X286201Y236393D02*
X320855D01*
X295850Y244493D02*
X320658D01*
X315273Y338993D02*
X320632D01*
X310820Y182393D02*
X320578D01*
X286201Y237293D02*
X320144D01*
X294262Y243593D02*
X320011D01*
X314420Y178793D02*
X319913D01*
X315718Y370493D02*
X319715D01*
X309920Y183293D02*
X319678D01*
X286201Y238193D02*
X319667D01*
X317362Y149993D02*
X319614D01*
X284631Y242693D02*
X319580D01*
X286201Y239093D02*
X319364D01*
X285489Y241793D02*
X319315D01*
X315320Y177893D02*
X319253D01*
X286188Y239993D02*
X319211D01*
X285985Y240893D02*
X319195D01*
X316711Y339893D02*
X319194D01*
X316220Y176993D02*
X318811D01*
X309020Y184193D02*
X318778D01*
X318235Y150893D02*
X318742D01*
X316862Y369593D02*
X318572D01*
X317120Y176093D02*
X318538D01*
X317578Y340793D02*
X318327D01*
X308120Y185093D02*
X317878D01*
X307197Y185993D02*
X316978D01*
X310836Y203993D02*
X315660D01*
X311134Y224693D02*
X315362D01*
X310439Y282293D02*
X315057D01*
X310541Y302993D02*
X314955D01*
X312205Y204893D02*
X314291D01*
X312373Y223793D02*
X314124D01*
X311761Y283193D02*
X313735D01*
X311819Y302093D02*
X313677D01*
X288544Y197693D02*
X313528D01*
X299347Y186893D02*
X312754D01*
X289444Y196793D02*
X311983D01*
X298444Y187793D02*
X311560D01*
X290344Y195893D02*
X311079D01*
X297544Y188693D02*
X310799D01*
X296676Y149093D02*
X310718D01*
X291244Y194993D02*
X310475D01*
X305037Y338993D02*
X310396D01*
X296644Y189593D02*
X310287D01*
X292144Y194093D02*
X310074D01*
X295744Y190493D02*
X309957D01*
X293044Y193193D02*
X309835D01*
X294844Y191393D02*
X309779D01*
X293944Y192293D02*
X309739D01*
X305482Y370493D02*
X309478D01*
X298016Y149993D02*
X309378D01*
X306475Y339893D02*
X308958D01*
X298842Y150893D02*
X308552D01*
X306625Y369593D02*
X308335D01*
X307342Y340793D02*
X308091D01*
X299398Y151793D02*
X307996D01*
X299761Y152693D02*
X307632D01*
X299967Y155393D02*
X307427D01*
X299968Y153593D02*
X307425D01*
X300035Y154493D02*
X307358D01*
X299758Y156293D02*
X306842D01*
X299393Y157193D02*
X305976D01*
X286201Y203993D02*
X305660D01*
X286201Y224693D02*
X305362D01*
X298835Y158093D02*
X305110D01*
X250439Y282293D02*
X305057D01*
X250541Y302993D02*
X304955D01*
X286201Y214793D02*
X304408D01*
X286201Y204893D02*
X304291D01*
X298004Y158993D02*
X304244D01*
X286201Y213893D02*
X304232D01*
X286201Y223793D02*
X304124D01*
X251647Y293093D02*
X303849D01*
X251707Y292193D02*
X303789D01*
X251761Y283193D02*
X303735D01*
X251819Y302093D02*
X303677D01*
X286201Y215693D02*
X303530D01*
X286201Y205793D02*
X303453D01*
X286201Y212993D02*
X303414D01*
X297876Y159893D02*
X303378D01*
X286201Y222893D02*
X303341D01*
X252505Y293993D02*
X302991D01*
X252545Y291293D02*
X302951D01*
X286201Y216593D02*
X302942D01*
X252581Y284093D02*
X302915D01*
X286201Y206693D02*
X302890D01*
X252619Y301193D02*
X302877D01*
X286201Y212093D02*
X302864D01*
X286201Y221993D02*
X302815D01*
X286201Y217493D02*
X302553D01*
X286201Y207593D02*
X302520D01*
X298774Y160793D02*
X302512D01*
X286201Y211193D02*
X302504D01*
X286201Y221093D02*
X302474D01*
X253081Y294893D02*
X302416D01*
X253107Y290393D02*
X302389D01*
X253131Y284993D02*
X302365D01*
X253157Y300293D02*
X302339D01*
X286201Y218393D02*
X302324D01*
X286201Y208493D02*
X302308D01*
X286201Y210293D02*
X302300D01*
X286201Y220193D02*
X302286D01*
X286201Y219293D02*
X302238D01*
X286201Y209393D02*
X302236D01*
X253460Y295793D02*
X302036D01*
X253477Y289493D02*
X302020D01*
X253492Y285893D02*
X302005D01*
X253507Y299393D02*
X301989D01*
X253680Y296693D02*
X301816D01*
X253688Y288593D02*
X301808D01*
X253696Y286793D02*
X301800D01*
X253703Y298493D02*
X301793D01*
X253759Y297593D02*
X301737D01*
X253760Y287693D02*
X301736D01*
X299375Y161693D02*
X301646D01*
X299773Y162593D02*
X300780D01*
X294801Y338993D02*
X300160D01*
X295246Y370493D02*
X299242D01*
X296239Y339893D02*
X298722D01*
X296389Y369593D02*
X298099D01*
X297106Y340793D02*
X297855D01*
X278812Y269693D02*
X295650D01*
X289612Y258893D02*
X295157D01*
X279712Y268793D02*
X294185D01*
X288712Y259793D02*
X293914D01*
X280612Y267893D02*
X293309D01*
X287812Y260693D02*
X293129D01*
X281512Y266993D02*
X292722D01*
X286912Y261593D02*
X292601D01*
X282412Y266093D02*
X292334D01*
X286012Y262493D02*
X292259D01*
X283312Y265193D02*
X292107D01*
X285112Y263393D02*
X292070D01*
X284212Y264293D02*
X292021D01*
X286440Y149093D02*
X291371D01*
X287780Y149993D02*
X290032D01*
X283731Y243593D02*
X289990D01*
X276454Y338993D02*
X289924D01*
X288652Y150893D02*
X289159D01*
X277707Y370493D02*
X289006D01*
X277469Y359693D02*
X288673D01*
X277469Y358793D02*
X288673D01*
X277469Y357893D02*
X288673D01*
X277469Y356993D02*
X288673D01*
X277469Y356093D02*
X288673D01*
X277469Y355193D02*
X288673D01*
X277469Y354293D02*
X288673D01*
X277469Y353393D02*
X288673D01*
X277469Y352493D02*
X288673D01*
X277469Y351593D02*
X288673D01*
X277469Y350693D02*
X288673D01*
X277469Y349793D02*
X288673D01*
X277892Y339893D02*
X288486D01*
X277469Y360593D02*
X288455D01*
X282831Y244493D02*
X288402D01*
X278107Y348893D02*
X288271D01*
X278637Y369593D02*
X287863D01*
X278758Y340793D02*
X287620D01*
X278263Y361493D02*
X287518D01*
X281931Y245393D02*
X287483D01*
X278900Y347993D02*
X287478D01*
X279257Y368693D02*
X287127D01*
X279338Y341693D02*
X287040D01*
X279434Y347093D02*
X286944D01*
X279004Y362393D02*
X286894D01*
X281031Y246293D02*
X286871D01*
X279721Y342593D02*
X286657D01*
X280274Y251693D02*
X286648D01*
X279669Y367793D02*
X286631D01*
X279781Y346193D02*
X286597D01*
X279504Y363293D02*
X286479D01*
X280131Y247193D02*
X286463D01*
X279945Y343493D02*
X286433D01*
X279973Y345293D02*
X286405D01*
X280027Y344393D02*
X286351D01*
X279148Y250793D02*
X286326D01*
X279918Y366893D02*
X286314D01*
X279823Y364193D02*
X286227D01*
X279231Y248093D02*
X286219D01*
X277745Y249893D02*
X286153D01*
X280023Y365993D02*
X286148D01*
X281001Y252593D02*
X286146D01*
X279992Y365093D02*
X286120D01*
X278331Y248993D02*
X286118D01*
X281491Y253493D02*
X285246D01*
X281803Y254393D02*
X284346D01*
X281965Y255293D02*
X283446D01*
X205245Y316493D02*
X281164D01*
X276204Y149093D02*
X281135D01*
X208629Y327293D02*
X280528D01*
X277543Y149993D02*
X279795D01*
X208172Y317393D02*
X279659D01*
X209581Y326393D02*
X279311D01*
X278416Y150893D02*
X278923D01*
X209295Y318293D02*
X278769D01*
X210214Y325493D02*
X278538D01*
X210021Y319193D02*
X278173D01*
X210636Y324593D02*
X278018D01*
X210509Y320093D02*
X277779D01*
X210892Y323693D02*
X277682D01*
X210820Y320993D02*
X277546D01*
X211005Y322793D02*
X277499D01*
X210981Y321893D02*
X277455D01*
X254217Y191393D02*
X272141D01*
X254744Y190493D02*
X272015D01*
X265847Y371393D02*
X271948D01*
X266218Y338993D02*
X271577D01*
X254257Y192293D02*
X271241D01*
X265967Y149093D02*
X270899D01*
X254161Y193193D02*
X270341D01*
X267471Y370493D02*
X270324D01*
X267656Y339893D02*
X270139D01*
X255644Y189593D02*
X269890D01*
X266289Y178793D02*
X269795D01*
X266661Y177893D02*
X269795D01*
X266768Y176993D02*
X269795D01*
X266768Y176093D02*
X269795D01*
X266768Y175193D02*
X269795D01*
X266768Y174293D02*
X269795D01*
X266768Y173393D02*
X269795D01*
X266768Y172493D02*
X269795D01*
X266768Y171593D02*
X269795D01*
X266768Y170693D02*
X269795D01*
X266768Y169793D02*
X269795D01*
X266768Y168893D02*
X269795D01*
X266768Y167993D02*
X269795D01*
X266768Y167093D02*
X269795D01*
X266768Y166193D02*
X269795D01*
X266768Y165293D02*
X269795D01*
X266768Y164393D02*
X269795D01*
X266768Y163493D02*
X269795D01*
X266768Y162593D02*
X269795D01*
X266768Y161693D02*
X269795D01*
X266768Y160793D02*
X269795D01*
X266768Y159893D02*
X269795D01*
X265544Y179693D02*
X269721D01*
X253922Y194093D02*
X269676D01*
X267296Y158993D02*
X269570D01*
X267307Y149993D02*
X269559D01*
X268401Y369593D02*
X269394D01*
X253521Y194993D02*
X269362D01*
X184208Y232793D02*
X269295D01*
X183081Y231893D02*
X269295D01*
X162969Y230993D02*
X269295D01*
X163249Y230093D02*
X269295D01*
X163295Y229193D02*
X269295D01*
X163295Y228293D02*
X269295D01*
X163295Y227393D02*
X269295D01*
X249740Y226493D02*
X269295D01*
X251697Y225593D02*
X269295D01*
X252715Y224693D02*
X269295D01*
X253385Y223793D02*
X269295D01*
X253833Y222893D02*
X269295D01*
X254112Y221993D02*
X269295D01*
X254245Y221093D02*
X269295D01*
X254241Y220193D02*
X269295D01*
X254100Y219293D02*
X269295D01*
X253812Y218393D02*
X269295D01*
X253352Y217493D02*
X269295D01*
X252667Y216593D02*
X269295D01*
X251920Y215693D02*
X269295D01*
X252622Y214793D02*
X269295D01*
X253322Y213893D02*
X269295D01*
X253793Y212993D02*
X269295D01*
X254089Y212093D02*
X269295D01*
X254237Y211193D02*
X269295D01*
X254248Y210293D02*
X269295D01*
X254123Y209393D02*
X269295D01*
X253852Y208493D02*
X269295D01*
X253413Y207593D02*
X269295D01*
X252757Y206693D02*
X269295D01*
X251765Y205793D02*
X269295D01*
X249915Y204893D02*
X269295D01*
X169595Y203993D02*
X269295D01*
X169607Y203093D02*
X269295D01*
X170480Y202193D02*
X269295D01*
X171192Y201293D02*
X269295D01*
X171670Y200393D02*
X269295D01*
X171973Y199493D02*
X269295D01*
X172127Y198593D02*
X269295D01*
X250468Y197693D02*
X269295D01*
X252013Y196793D02*
X269295D01*
X252917Y195893D02*
X269295D01*
X268523Y340793D02*
X269272D01*
X184937Y233693D02*
X269252D01*
X256544Y188693D02*
X268839D01*
X264644Y180593D02*
X268772D01*
X268163Y158093D02*
X268703D01*
X268180Y150893D02*
X268686D01*
X185427Y234593D02*
X268398D01*
X257444Y187793D02*
X268150D01*
X263744Y181493D02*
X268105D01*
X258344Y186893D02*
X267688D01*
X262844Y182393D02*
X267658D01*
X185739Y235493D02*
X267498D01*
X259244Y185993D02*
X267398D01*
X261944Y183293D02*
X267381D01*
X260144Y185093D02*
X267256D01*
X261044Y184193D02*
X267250D01*
X185902Y236393D02*
X266598D01*
X185926Y237293D02*
X265698D01*
X185815Y238193D02*
X264798D01*
X185560Y239093D02*
X263898D01*
X185140Y239993D02*
X262998D01*
X188517Y240893D02*
X262098D01*
X255611Y371393D02*
X261712D01*
X255982Y338993D02*
X261341D01*
X190514Y241793D02*
X261198D01*
X255731Y149093D02*
X260662D01*
X191539Y242693D02*
X260298D01*
X257235Y370493D02*
X260088D01*
X257420Y339893D02*
X259903D01*
X192214Y243593D02*
X259398D01*
X257071Y149993D02*
X259323D01*
X258165Y369593D02*
X259158D01*
X258287Y340793D02*
X259036D01*
X257943Y150893D02*
X258450D01*
X245375Y371393D02*
X251476D01*
X245746Y338993D02*
X251105D01*
X245495Y149093D02*
X250426D01*
X246998Y370493D02*
X249852D01*
X247184Y339893D02*
X249667D01*
X246835Y149993D02*
X249087D01*
X247928Y369593D02*
X248922D01*
X248050Y340793D02*
X248800D01*
X247707Y150893D02*
X248214D01*
X239740Y226493D02*
X246757D01*
X239915Y204893D02*
X246581D01*
X240468Y197693D02*
X246028D01*
X240705Y275093D02*
X245791D01*
X240439Y282293D02*
X245057D01*
X240541Y302993D02*
X244955D01*
X241697Y225593D02*
X244799D01*
X241765Y205793D02*
X244732D01*
X242013Y196793D02*
X244483D01*
X242134Y274193D02*
X244362D01*
X242715Y224693D02*
X243781D01*
X242757Y206693D02*
X243739D01*
X241761Y283193D02*
X243735D01*
X241819Y302093D02*
X243677D01*
X242929Y195893D02*
X243567D01*
X243126Y273293D02*
X243370D01*
X235138Y371393D02*
X241240D01*
X235510Y338993D02*
X240868D01*
X235259Y149093D02*
X240190D01*
X236762Y370493D02*
X239616D01*
X236947Y339893D02*
X239430D01*
X236598Y149993D02*
X238850D01*
X237692Y369593D02*
X238686D01*
X237814Y340793D02*
X238564D01*
X237471Y150893D02*
X237978D01*
X229740Y226493D02*
X236757D01*
X229915Y204893D02*
X236581D01*
X230468Y197693D02*
X236028D01*
X230705Y275093D02*
X235791D01*
X230439Y282293D02*
X235057D01*
X230541Y302993D02*
X234955D01*
X231697Y225593D02*
X234799D01*
X231765Y205793D02*
X234732D01*
X232013Y196793D02*
X234483D01*
X232134Y274193D02*
X234362D01*
X232715Y224693D02*
X233781D01*
X232757Y206693D02*
X233739D01*
X231761Y283193D02*
X233735D01*
X231819Y302093D02*
X233677D01*
X232929Y195893D02*
X233567D01*
X233126Y273293D02*
X233370D01*
X224902Y371393D02*
X231003D01*
X225273Y338993D02*
X230632D01*
X225023Y149093D02*
X229954D01*
X226526Y370493D02*
X229380D01*
X226711Y339893D02*
X229194D01*
X226362Y149993D02*
X228614D01*
X227456Y369593D02*
X228450D01*
X227578Y340793D02*
X228327D01*
X192666Y244493D02*
X228291D01*
X227235Y150893D02*
X227742D01*
X192947Y245393D02*
X227078D01*
X219740Y226493D02*
X226757D01*
X219915Y204893D02*
X226581D01*
X193082Y246293D02*
X226178D01*
X220468Y197693D02*
X226028D01*
X220705Y275093D02*
X225791D01*
X193081Y247193D02*
X225278D01*
X220439Y282293D02*
X225057D01*
X220541Y302993D02*
X224955D01*
X221697Y225593D02*
X224799D01*
X221765Y205793D02*
X224732D01*
X222013Y196793D02*
X224483D01*
X192942Y248093D02*
X224378D01*
X222134Y274193D02*
X224362D01*
X222715Y224693D02*
X223781D01*
X222757Y206693D02*
X223739D01*
X221761Y283193D02*
X223735D01*
X221819Y302093D02*
X223677D01*
X222929Y195893D02*
X223567D01*
X192657Y248993D02*
X223478D01*
X223126Y273293D02*
X223370D01*
X192200Y249893D02*
X222578D01*
X191520Y250793D02*
X221678D01*
X190482Y251693D02*
X220778D01*
X214666Y371393D02*
X220767D01*
X215037Y338993D02*
X220396D01*
X188425Y252593D02*
X219878D01*
X204526Y149093D02*
X219718D01*
X216290Y370493D02*
X219143D01*
X172229Y253493D02*
X218978D01*
X216475Y339893D02*
X218958D01*
X182667Y176093D02*
X218917D01*
X182546Y175193D02*
X218917D01*
X182021Y174293D02*
X218917D01*
X164541Y173393D02*
X218917D01*
X165441Y172493D02*
X218917D01*
X166341Y171593D02*
X218917D01*
X167241Y170693D02*
X218917D01*
X168141Y169793D02*
X218917D01*
X169041Y168893D02*
X218917D01*
X169941Y167993D02*
X218917D01*
X170841Y167093D02*
X218917D01*
X171741Y166193D02*
X218917D01*
X172641Y165293D02*
X218917D01*
X173541Y164393D02*
X218917D01*
X174434Y163493D02*
X218917D01*
X175083Y162593D02*
X218917D01*
X175472Y161693D02*
X218917D01*
X175665Y160793D02*
X218917D01*
X203855Y159893D02*
X218917D01*
X182667Y176993D02*
X218478D01*
X205370Y158993D02*
X218389D01*
X205737Y149993D02*
X218378D01*
X217220Y369593D02*
X218213D01*
X217342Y340793D02*
X218091D01*
X117429Y254393D02*
X218078D01*
X182667Y177893D02*
X217578D01*
X206264Y158093D02*
X217559D01*
X206507Y150893D02*
X217552D01*
X117429Y255293D02*
X217178D01*
X206861Y157193D02*
X217001D01*
X207025Y151793D02*
X216996D01*
X209740Y226493D02*
X216757D01*
X182667Y178793D02*
X216678D01*
X207257Y156293D02*
X216636D01*
X207359Y152693D02*
X216632D01*
X209915Y204893D02*
X216581D01*
X207492Y155393D02*
X216427D01*
X207541Y153593D02*
X216425D01*
X207584Y154493D02*
X216358D01*
X117429Y256193D02*
X216278D01*
X210468Y197693D02*
X216028D01*
X210205Y275093D02*
X215791D01*
X182667Y179693D02*
X215778D01*
X117429Y257093D02*
X215378D01*
X210439Y282293D02*
X215057D01*
X210541Y302993D02*
X214955D01*
X182667Y180593D02*
X214878D01*
X211697Y225593D02*
X214799D01*
X211765Y205793D02*
X214732D01*
X212013Y196793D02*
X214483D01*
X117429Y257993D02*
X214478D01*
X211634Y274193D02*
X214362D01*
X182667Y181493D02*
X213978D01*
X212715Y224693D02*
X213781D01*
X212757Y206693D02*
X213739D01*
X211761Y283193D02*
X213735D01*
X211819Y302093D02*
X213677D01*
X117429Y258893D02*
X213578D01*
X212929Y195893D02*
X213567D01*
X212497Y273293D02*
X213499D01*
X182667Y182393D02*
X213078D01*
X117429Y259793D02*
X212678D01*
X182667Y183293D02*
X212178D01*
X117429Y260693D02*
X211778D01*
X182667Y184193D02*
X211278D01*
X117429Y261593D02*
X210878D01*
X204430Y371393D02*
X210531D01*
X182667Y185093D02*
X210378D01*
X204801Y338993D02*
X210160D01*
X117429Y262493D02*
X209978D01*
X182609Y185993D02*
X209478D01*
X117429Y263393D02*
X209078D01*
X206054Y370493D02*
X208907D01*
X206239Y339893D02*
X208722D01*
X206984Y369593D02*
X207977D01*
X207106Y340793D02*
X207855D01*
X181168Y226493D02*
X206757D01*
X169595Y204893D02*
X206581D01*
X172144Y197693D02*
X206028D01*
X166590Y275093D02*
X205291D01*
X182208Y186893D02*
X205254D01*
X173790Y282293D02*
X205057D01*
X178256Y302993D02*
X204955D01*
X117429Y264293D02*
X204935D01*
X181985Y225593D02*
X204799D01*
X168311Y316493D02*
X204755D01*
X169595Y205793D02*
X204732D01*
X182274Y215693D02*
X204576D01*
X172025Y196793D02*
X204483D01*
X181001Y187793D02*
X204060D01*
X182270Y214793D02*
X203874D01*
X165682Y274193D02*
X203862D01*
X178256Y293093D02*
X203849D01*
X182274Y216593D02*
X203829D01*
X178256Y292193D02*
X203789D01*
X182260Y224693D02*
X203781D01*
X169595Y206693D02*
X203739D01*
X174690Y283193D02*
X203735D01*
X178256Y302093D02*
X203677D01*
X117429Y265193D02*
X203666D01*
X171760Y195893D02*
X203579D01*
X160736Y188693D02*
X203299D01*
X182043Y213893D02*
X203174D01*
X182274Y217493D02*
X203144D01*
X182274Y223793D02*
X203112D01*
X169595Y207593D02*
X203083D01*
X156611Y328193D02*
X203069D01*
X142512Y273293D02*
X202999D01*
X178256Y293993D02*
X202991D01*
X171329Y194993D02*
X202975D01*
X178256Y291293D02*
X202951D01*
X175590Y284093D02*
X202915D01*
X178256Y301193D02*
X202877D01*
X117429Y266093D02*
X202869D01*
X160736Y189593D02*
X202787D01*
X181329Y212993D02*
X202704D01*
X182274Y218393D02*
X202684D01*
X182274Y222893D02*
X202663D01*
X169595Y208493D02*
X202644D01*
X170684Y194093D02*
X202574D01*
X160736Y190493D02*
X202457D01*
X141683Y272393D02*
X202421D01*
X178256Y294893D02*
X202416D01*
X168992Y212093D02*
X202407D01*
X182274Y219293D02*
X202396D01*
X178256Y290393D02*
X202389D01*
X182274Y221993D02*
X202384D01*
X169595Y209393D02*
X202373D01*
X176490Y284993D02*
X202365D01*
X178256Y300293D02*
X202339D01*
X169710Y193193D02*
X202335D01*
X117429Y266993D02*
X202334D01*
X160736Y191393D02*
X202279D01*
X169319Y211193D02*
X202259D01*
X182274Y220193D02*
X202255D01*
X182274Y221093D02*
X202251D01*
X169565Y210293D02*
X202248D01*
X167934Y192293D02*
X202239D01*
X140637Y271493D02*
X202040D01*
X178256Y295793D02*
X202036D01*
X178256Y289493D02*
X202020D01*
X177382Y285893D02*
X202005D01*
X178256Y299393D02*
X201989D01*
X117429Y267893D02*
X201985D01*
X167411Y317393D02*
X201828D01*
X138698Y270593D02*
X201818D01*
X178256Y296693D02*
X201816D01*
X178256Y288593D02*
X201808D01*
X177961Y286793D02*
X201800D01*
X178256Y298493D02*
X201793D01*
X117429Y268793D02*
X201791D01*
X117429Y269693D02*
X201737D01*
X178256Y297593D02*
X201737D01*
X178220Y287693D02*
X201736D01*
X157511Y327293D02*
X201371D01*
X166511Y318293D02*
X200705D01*
X158411Y326393D02*
X200419D01*
X117429Y371393D02*
X200295D01*
X165611Y319193D02*
X199979D01*
X147941Y338993D02*
X199924D01*
X159311Y325493D02*
X199786D01*
X164711Y320093D02*
X199491D01*
X160211Y324593D02*
X199364D01*
X193619Y159893D02*
X199294D01*
X163811Y320993D02*
X199180D01*
X161111Y323693D02*
X199108D01*
X162911Y321893D02*
X199019D01*
X162011Y322793D02*
X198995D01*
X172070Y359693D02*
X198909D01*
X172831Y358793D02*
X198909D01*
X173081Y357893D02*
X198909D01*
X173089Y356993D02*
X198909D01*
X173089Y356093D02*
X198909D01*
X173089Y355193D02*
X198909D01*
X173089Y354293D02*
X198909D01*
X173089Y353393D02*
X198909D01*
X173089Y352493D02*
X198909D01*
X173089Y351593D02*
X198909D01*
X173089Y350693D02*
X198909D01*
X173089Y349793D02*
X198909D01*
X117429Y360593D02*
X198909D01*
X117429Y370493D02*
X198671D01*
X194290Y149093D02*
X198623D01*
X147941Y339893D02*
X198486D01*
X173068Y348893D02*
X198271D01*
X117429Y361493D02*
X198115D01*
X195134Y158993D02*
X197780D01*
X117429Y369593D02*
X197741D01*
X147941Y340793D02*
X197620D01*
X172766Y347993D02*
X197478D01*
X195501Y149993D02*
X197412D01*
X117429Y362393D02*
X197374D01*
X117429Y368693D02*
X197121D01*
X147941Y341693D02*
X197040D01*
X171886Y347093D02*
X196944D01*
X196028Y158093D02*
X196886D01*
X117429Y363293D02*
X196874D01*
X117429Y367793D02*
X196709D01*
X147941Y342593D02*
X196657D01*
X147941Y346193D02*
X196597D01*
X117429Y364193D02*
X196555D01*
X117429Y366893D02*
X196460D01*
X147941Y343493D02*
X196433D01*
X147941Y345293D02*
X196405D01*
X117429Y365093D02*
X196386D01*
X117429Y365993D02*
X196355D01*
X147941Y344393D02*
X196351D01*
X183383Y159893D02*
X189058D01*
X184054Y149093D02*
X188387D01*
X184898Y158993D02*
X187543D01*
X185265Y149993D02*
X187176D01*
X185791Y158093D02*
X186650D01*
X174270Y252593D02*
X185748D01*
X185286Y240893D02*
X185656D01*
X175307Y251693D02*
X183691D01*
X175697Y159893D02*
X178822D01*
X173817Y149093D02*
X178151D01*
X175697Y158993D02*
X177307D01*
X175029Y149993D02*
X176940D01*
X162358Y231893D02*
X176762D01*
X161460Y232793D02*
X175634D01*
X172274Y241793D02*
X175426D01*
X156950Y240893D02*
X175334D01*
X160560Y233693D02*
X174906D01*
X157580Y239993D02*
X174703D01*
X159660Y234593D02*
X174416D01*
X158001Y239093D02*
X174283D01*
X158760Y235493D02*
X174103D01*
X158256Y238193D02*
X174027D01*
X158343Y236393D02*
X173941D01*
X158367Y237293D02*
X173916D01*
X169508Y302993D02*
X171350D01*
X169508Y302093D02*
X171350D01*
X169508Y301193D02*
X171350D01*
X169508Y300293D02*
X171350D01*
X169508Y299393D02*
X171350D01*
X169508Y298493D02*
X171350D01*
X169508Y297593D02*
X171350D01*
X169508Y296693D02*
X171350D01*
X169508Y295793D02*
X171350D01*
X169508Y294893D02*
X171350D01*
X169508Y293993D02*
X171350D01*
X169499Y293093D02*
X171350D01*
X169243Y292193D02*
X171350D01*
X168467Y291293D02*
X171350D01*
X153302Y290393D02*
X171350D01*
X153692Y289493D02*
X171223D01*
X169508Y303893D02*
X171145D01*
X153932Y288593D02*
X170324D01*
X169839Y304793D02*
X170178D01*
X117429Y253493D02*
X169504D01*
X156159Y241793D02*
X169458D01*
X154037Y287693D02*
X169424D01*
X154014Y286793D02*
X168524D01*
X163581Y149093D02*
X167915D01*
X153863Y285893D02*
X167624D01*
X117429Y252593D02*
X167462D01*
X160736Y187793D02*
X167397D01*
X153573Y284993D02*
X166724D01*
X164793Y149993D02*
X166703D01*
X163295Y226493D02*
X166442D01*
X163641Y174293D02*
X166377D01*
X160736Y186893D02*
X166190D01*
X162741Y175193D02*
X165852D01*
X153123Y284093D02*
X165824D01*
X160736Y185993D02*
X165789D01*
X160736Y185093D02*
X165730D01*
X160736Y184193D02*
X165730D01*
X160736Y183293D02*
X165730D01*
X160736Y182393D02*
X165730D01*
X160736Y181493D02*
X165730D01*
X160736Y180593D02*
X165730D01*
X160736Y179693D02*
X165730D01*
X160736Y178793D02*
X165730D01*
X160736Y177893D02*
X165730D01*
X160941Y176993D02*
X165730D01*
X161841Y176093D02*
X165730D01*
X163295Y225593D02*
X165625D01*
X163295Y224693D02*
X165350D01*
X163295Y223793D02*
X165337D01*
X163295Y222893D02*
X165337D01*
X163295Y221993D02*
X165337D01*
X163295Y221093D02*
X165337D01*
X163295Y220193D02*
X165337D01*
X163295Y219293D02*
X165337D01*
X163295Y218393D02*
X165337D01*
X163385Y217493D02*
X165337D01*
X164274Y216593D02*
X165315D01*
X152467Y283193D02*
X164924D01*
X160736Y192293D02*
X164349D01*
X151502Y282293D02*
X164024D01*
X149858Y281393D02*
X163124D01*
X154015Y311993D02*
X163045D01*
X153864Y311093D02*
X162956D01*
X160736Y193193D02*
X162573D01*
X148956Y280493D02*
X162224D01*
X154037Y312893D02*
X162145D01*
X160874Y194093D02*
X161599D01*
X153931Y313793D02*
X161245D01*
X147941Y347093D02*
X160693D01*
X117429Y359693D02*
X160509D01*
X153691Y314693D02*
X160345D01*
X157019Y347993D02*
X159812D01*
X155732Y358793D02*
X159748D01*
X158293Y348893D02*
X159511D01*
X157694Y357893D02*
X159498D01*
X153300Y315593D02*
X159445D01*
X158717Y356993D02*
X159263D01*
X152726Y291293D02*
X158919D01*
X152723Y316493D02*
X158545D01*
X153575Y310193D02*
X158470D01*
X151889Y292193D02*
X158144D01*
X153125Y309293D02*
X157981D01*
X150577Y293093D02*
X157888D01*
X152470Y308393D02*
X157878D01*
X151507Y307493D02*
X157878D01*
X149867Y306593D02*
X157878D01*
X155768Y293993D02*
X157878D01*
X156479Y305693D02*
X157876D01*
X153345Y149093D02*
X157679D01*
X151885Y317393D02*
X157645D01*
X150570Y318293D02*
X156745D01*
X154556Y149993D02*
X156467D01*
X117429Y319193D02*
X155845D01*
X117429Y320093D02*
X154945D01*
X117429Y320993D02*
X154045D01*
X117429Y321893D02*
X153145D01*
X145732Y358793D02*
X152929D01*
X117429Y322793D02*
X152245D01*
X147941Y347993D02*
X151643D01*
X117429Y323693D02*
X151345D01*
X117429Y293993D02*
X151319D01*
X146607Y205793D02*
X151075D01*
X148493Y204893D02*
X151075D01*
X149494Y203993D02*
X151075D01*
X150155Y203093D02*
X150994D01*
X147694Y357893D02*
X150967D01*
X117429Y305693D02*
X150608D01*
X117429Y206693D02*
X150465D01*
X117429Y324593D02*
X150445D01*
X148293Y348893D02*
X150369D01*
X148694Y356993D02*
X149967D01*
X117429Y294893D02*
X149677D01*
X117429Y207593D02*
X149565D01*
X117429Y325493D02*
X149545D01*
X117429Y251693D02*
X149299D01*
X117429Y304793D02*
X149294D01*
X117429Y160793D02*
X149214D01*
X117429Y295793D02*
X148713D01*
X117429Y208493D02*
X148665D01*
X117429Y326393D02*
X148645D01*
X117429Y303893D02*
X148457D01*
X117429Y161693D02*
X148384D01*
X142438Y159893D02*
X148113D01*
X117429Y296693D02*
X148057D01*
X117429Y250793D02*
X147904D01*
X117429Y302993D02*
X147880D01*
X117429Y209393D02*
X147765D01*
X117429Y327293D02*
X147745D01*
X117429Y297593D02*
X147607D01*
X117429Y302093D02*
X147489D01*
X117429Y162593D02*
X147484D01*
X143109Y149093D02*
X147442D01*
X117429Y298493D02*
X147318D01*
X117429Y301193D02*
X147250D01*
X117429Y299393D02*
X147167D01*
X117429Y300293D02*
X147144D01*
X117429Y249893D02*
X146998D01*
X117429Y210293D02*
X146865D01*
X117429Y328193D02*
X146845D01*
X143953Y158993D02*
X146599D01*
X117429Y163493D02*
X146584D01*
X142221Y280493D02*
X146320D01*
X144320Y149993D02*
X146231D01*
X117429Y248993D02*
X146098D01*
X117429Y211193D02*
X145965D01*
X117429Y329093D02*
X145945D01*
X144846Y158093D02*
X145705D01*
X117429Y164393D02*
X145684D01*
X141443Y281393D02*
X145417D01*
X131756Y306593D02*
X145409D01*
X117429Y248093D02*
X145198D01*
X117429Y212093D02*
X145065D01*
X117429Y329993D02*
X145045D01*
X117429Y165293D02*
X144784D01*
X132460Y318293D02*
X144705D01*
X132466Y293093D02*
X144699D01*
X117429Y247193D02*
X144298D01*
X117429Y330893D02*
X144145D01*
X117429Y166193D02*
X143884D01*
X140255Y282293D02*
X143773D01*
X133396Y307493D02*
X143769D01*
X117429Y246293D02*
X143398D01*
X117429Y205793D02*
X143393D01*
X133775Y317393D02*
X143390D01*
X133779Y292193D02*
X143387D01*
X117429Y331793D02*
X143245D01*
X117429Y167093D02*
X142984D01*
X117429Y358793D02*
X142929D01*
X134736Y283193D02*
X142809D01*
X134359Y308393D02*
X142806D01*
X134613Y316493D02*
X142552D01*
X134615Y291293D02*
X142550D01*
X117429Y245393D02*
X142498D01*
X117429Y332693D02*
X142345D01*
X135013Y284093D02*
X142153D01*
X135014Y309293D02*
X142151D01*
X117429Y167993D02*
X142084D01*
X135190Y315593D02*
X141975D01*
X135192Y290393D02*
X141974D01*
X135463Y284993D02*
X141702D01*
X135464Y310193D02*
X141701D01*
X117429Y244493D02*
X141598D01*
X135581Y314693D02*
X141584D01*
X135582Y289493D02*
X141583D01*
X117429Y333593D02*
X141566D01*
X117429Y204893D02*
X141507D01*
X135753Y285893D02*
X141412D01*
X135754Y311093D02*
X141412D01*
X135821Y313793D02*
X141345D01*
X135821Y288593D02*
X141344D01*
X135904Y286793D02*
X141261D01*
X135904Y311993D02*
X141261D01*
X117429Y194993D02*
X141246D01*
X117429Y194093D02*
X141246D01*
X117429Y193193D02*
X141246D01*
X117429Y192293D02*
X141246D01*
X117429Y191393D02*
X141246D01*
X117429Y190493D02*
X141246D01*
X117429Y189593D02*
X141246D01*
X117429Y188693D02*
X141246D01*
X135926Y312893D02*
X141239D01*
X135926Y287693D02*
X141239D01*
X117429Y168893D02*
X141187D01*
X117429Y334493D02*
X141166D01*
X117429Y335393D02*
X141036D01*
X117429Y347993D02*
X141035D01*
X117429Y347093D02*
X141035D01*
X117429Y346193D02*
X141035D01*
X117429Y345293D02*
X141035D01*
X117429Y344393D02*
X141035D01*
X117429Y343493D02*
X141035D01*
X117429Y342593D02*
X141035D01*
X117429Y341693D02*
X141035D01*
X117429Y340793D02*
X141035D01*
X117429Y339893D02*
X141035D01*
X117429Y338993D02*
X141035D01*
X117429Y338093D02*
X141035D01*
X117429Y337193D02*
X141035D01*
X117429Y336293D02*
X141035D01*
X117429Y357893D02*
X140967D01*
X138649Y243593D02*
X140698D01*
X117429Y195893D02*
X140610D01*
X117429Y169793D02*
X140575D01*
X117429Y203993D02*
X140506D01*
X117429Y348893D02*
X140369D01*
X117429Y170693D02*
X140295D01*
X117429Y172493D02*
X140248D01*
X117429Y171593D02*
X140248D01*
X117429Y173393D02*
X140044D01*
X117429Y356993D02*
X139967D01*
X117429Y196793D02*
X139915D01*
X117429Y203093D02*
X139845D01*
X117429Y349793D02*
X139582D01*
X117429Y227393D02*
X139474D01*
X117429Y197693D02*
X139448D01*
X117429Y202193D02*
X139402D01*
X117429Y356093D02*
X139316D01*
X117429Y228293D02*
X139285D01*
X117429Y198593D02*
X139155D01*
X117429Y201293D02*
X139129D01*
X117429Y350693D02*
X139060D01*
X117429Y199493D02*
X139010D01*
X117429Y200393D02*
X139001D01*
X117429Y355193D02*
X138887D01*
X117429Y351593D02*
X138728D01*
X117429Y354293D02*
X138629D01*
X117429Y352493D02*
X138553D01*
X117429Y353393D02*
X138521D01*
X117429Y229193D02*
X138385D01*
X117429Y187793D02*
X137897D01*
X132202Y159893D02*
X137877D01*
X117429Y230093D02*
X137485D01*
X132873Y149093D02*
X137206D01*
X117429Y226493D02*
X136942D01*
X117429Y174293D02*
X136877D01*
X117429Y212993D02*
X136781D01*
X117429Y186893D02*
X136690D01*
X117429Y230993D02*
X136526D01*
X133716Y158993D02*
X136362D01*
X117429Y175193D02*
X136352D01*
X117429Y185993D02*
X136289D01*
X117429Y185093D02*
X136230D01*
X117429Y184193D02*
X136230D01*
X117429Y183293D02*
X136230D01*
X117429Y182393D02*
X136230D01*
X117429Y181493D02*
X136230D01*
X117429Y180593D02*
X136230D01*
X117429Y179693D02*
X136230D01*
X117429Y178793D02*
X136230D01*
X117429Y177893D02*
X136230D01*
X117429Y176993D02*
X136230D01*
X117429Y176093D02*
X136230D01*
X117429Y225593D02*
X136125D01*
X117429Y213893D02*
X136067D01*
X134084Y149993D02*
X135995D01*
X117429Y224693D02*
X135850D01*
X117429Y214793D02*
X135841D01*
X117429Y223793D02*
X135837D01*
X117429Y222893D02*
X135837D01*
X117429Y221993D02*
X135837D01*
X117429Y221093D02*
X135837D01*
X117429Y220193D02*
X135837D01*
X117429Y219293D02*
X135837D01*
X117429Y218393D02*
X135837D01*
X117429Y217493D02*
X135837D01*
X117429Y216593D02*
X135837D01*
X117429Y215693D02*
X135837D01*
X134610Y158093D02*
X135469D01*
X117429Y243593D02*
X135366D01*
X117429Y270593D02*
X135318D01*
X117429Y231893D02*
X133739D01*
X117429Y242693D02*
X133398D01*
X117429Y271493D02*
X133379D01*
X117429Y232793D02*
X132559D01*
X117429Y241793D02*
X132345D01*
X117429Y272393D02*
X132332D01*
X117429Y280493D02*
X131792D01*
X117429Y233693D02*
X131785D01*
X117429Y240893D02*
X131638D01*
X117429Y273293D02*
X131629D01*
X117429Y279593D02*
X131257D01*
X117429Y234593D02*
X131251D01*
X117429Y239993D02*
X131150D01*
X117429Y274193D02*
X131144D01*
X117429Y278693D02*
X130897D01*
X117429Y235493D02*
X130893D01*
X117429Y239093D02*
X130830D01*
X117429Y275093D02*
X130826D01*
X117429Y277793D02*
X130684D01*
X117429Y236393D02*
X130682D01*
X117429Y238193D02*
X130651D01*
X117429Y275993D02*
X130650D01*
X117429Y276893D02*
X130603D01*
X117429Y237293D02*
X130603D01*
X117429Y159893D02*
X127641D01*
X117429Y281393D02*
X127307D01*
X117429Y306593D02*
X127299D01*
X117429Y149093D02*
X126970D01*
X117429Y318293D02*
X126595D01*
X117429Y293093D02*
X126589D01*
X117429Y158993D02*
X126126D01*
X117429Y149993D02*
X125759D01*
X117429Y282293D02*
X125663D01*
X117429Y307493D02*
X125659D01*
X117429Y317393D02*
X125280D01*
X117429Y292193D02*
X125277D01*
X117429Y158093D02*
X125232D01*
X117429Y150893D02*
X124989D01*
X117429Y283193D02*
X124698D01*
X117429Y308393D02*
X124696D01*
X117429Y157193D02*
X124635D01*
X117429Y151793D02*
X124471D01*
X117429Y316493D02*
X124442D01*
X117429Y291293D02*
X124440D01*
X117429Y156293D02*
X124239D01*
X117429Y152693D02*
X124137D01*
X117429Y284093D02*
X124043D01*
X117429Y309293D02*
X124041D01*
X117429Y155393D02*
X124004D01*
X117429Y153593D02*
X123955D01*
X117429Y154493D02*
X123912D01*
X117429Y315593D02*
X123865D01*
X117429Y290393D02*
X123864D01*
X117429Y284993D02*
X123592D01*
X117429Y310193D02*
X123591D01*
X117429Y314693D02*
X123474D01*
X117429Y289493D02*
X123473D01*
X117429Y285893D02*
X123302D01*
X117429Y311093D02*
X123301D01*
X117429Y313793D02*
X123234D01*
X117429Y288593D02*
X123234D01*
X117429Y286793D02*
X123151D01*
X117429Y311993D02*
X123151D01*
X117429Y312893D02*
X123129D01*
X117429Y287693D02*
X123129D01*
G54D23*
X144305Y219685D03*
X173805D03*
X144699Y180709D03*
X174199D03*
G54D26*
X385024Y154488D03*
X374787D03*
X364551D03*
X354315D03*
X344079D03*
X333843D03*
X323606D03*
X313370D03*
X294024D03*
X283787D03*
X273551D03*
X263315D03*
X253079D03*
X242843D03*
X232606D03*
X222370D03*
X202362Y344488D03*
X212598D03*
X222835D03*
X233071D03*
X243307D03*
X253543D03*
X263780D03*
X274016D03*
X292362D03*
X302598D03*
X312835D03*
X323071D03*
X333307D03*
X343543D03*
X353780D03*
X364016D03*
X392866Y334984D03*
X402709D03*
X392866Y324748D03*
X402709D03*
X392866Y314512D03*
X402709D03*
X392866Y304276D03*
X402709D03*
X392866Y294039D03*
X402709D03*
X392866Y283803D03*
X402709D03*
X392866Y273567D03*
X402709D03*
X392866Y263331D03*
X402709D03*
X392913Y253543D03*
X402756D03*
X392913Y243307D03*
X402756D03*
X392913Y233071D03*
X402756D03*
X392913Y222835D03*
X402756D03*
X392913Y212598D03*
X402756D03*
X392913Y202362D03*
X402756D03*
X392913Y192126D03*
X402756D03*
X392913Y181890D03*
X402756D03*
X449213Y294488D03*
Y284252D03*
Y274016D03*
Y263780D03*
Y253543D03*
Y243307D03*
Y233071D03*
Y222835D03*
Y212598D03*
Y202362D03*
Y192126D03*
Y181890D03*
X202362Y365748D03*
X212598D03*
X222835D03*
X233071D03*
X243307D03*
X253543D03*
X263780D03*
X274016D03*
X292126Y365354D03*
X302362D03*
X312598D03*
X322835D03*
X333071D03*
X343307D03*
X353543D03*
X363780D03*
X201575Y154331D03*
X191339D03*
X181102D03*
X170866D03*
X160630D03*
X150394D03*
X140157D03*
X129921D03*
X449213Y331102D03*
Y320866D03*
Y310630D03*
G54D29*
X420472Y170866D03*
X430472D03*
X154331Y353150D03*
X144331D03*
G54D31*
G54D36*
X181102Y157283D02*
Y173018D01*
X181496Y173411*
X283787Y157441D02*
Y174732D01*
X283858Y174803*
X294024Y154488D02*
Y154260D01*
X294094Y154331*
Y162008*
X158542Y156419D02*
X143701Y171260D01*
Y179711*
X144699Y180709*
X326219Y172994D02*
X344079Y155134D01*
Y154488*
X337243Y173387D02*
X354315Y156315D01*
Y154488*
X357321Y173387D02*
X374787Y155921D01*
Y154488*
X144699Y180709D02*
Y199699D01*
X145000Y200000*
X174199Y180709D02*
X181496Y173411D01*
X273248Y182047D02*
Y154791D01*
X273551Y154488*
X210058Y190297D02*
X222370Y177984D01*
Y157441*
X220058Y190297D02*
X232606Y177748D01*
Y157441*
X230058Y190297D02*
X242748Y177606D01*
Y154583*
X242843Y154488*
X240058Y190297D02*
X253079Y177276D01*
Y157441*
X250058Y190297D02*
X263315Y177039D01*
Y157441*
X317558Y190297D02*
X325965Y181890D01*
X338173*
X364551Y155512*
Y154488*
X173805Y219685D02*
X174199Y203150D01*
Y180709*
X173805Y219685D02*
Y232677D01*
X178530Y237402*
X180315*
X144094Y230315D02*
X144305D01*
X139567Y237402D02*
X141339D01*
X154172Y235198D02*
X159843Y229528D01*
Y216142*
X166142Y209843*
Y200591*
X179921Y237008D02*
X180315Y237402D01*
X170472Y247244D02*
X170683Y247455D01*
X170866Y247638*
X209558Y267797D02*
X229717Y247638D01*
X260236*
X272748Y235126*
Y195669*
X283748Y184669*
Y184606*
X300748Y167606*
X311323Y156616*
X220058Y267797D02*
X233524Y254331D01*
X234646Y253209*
X261024*
X277748Y236484*
Y196606*
X296457Y177898*
X300000*
X300197*
X306488Y171606*
X321518Y156576*
X230058Y267797D02*
X238799Y259055D01*
X239980Y257874*
X264567*
X282748Y239693*
Y198606*
X287748Y193606*
X298031Y183323*
X305008*
X331755Y156576*
X240058Y267797D02*
X245669Y262185D01*
X271260*
X275984Y257461*
Y255906*
X250807Y269606D02*
X269748D01*
X274016*
X292126Y251496*
Y249213*
X139567Y276772D02*
X163386D01*
X174803Y288189*
Y305118*
X371888Y316770D02*
X382283Y327165D01*
Y338189*
X390551Y346457*
X409843*
X415000Y341299*
Y332559*
X437500Y322559D02*
Y349941D01*
X205000Y322500D02*
X205177D01*
X213386Y330709*
X273622*
X416810Y328190D02*
X420472Y324528D01*
Y173425*
X273622Y330709D02*
X275748D01*
Y276106*
X294748Y257106*
X308642*
X323387Y242361*
X273622Y330709D02*
X354331D01*
X358661*
X370079Y319291*
Y317520*
X202362Y347441D02*
Y362795D01*
X212598Y347441D02*
Y362795D01*
X222835Y347441D02*
Y362795D01*
X233071Y347441D02*
Y362795D01*
X243307Y347441D02*
Y362795D01*
X253543Y347441D02*
Y362795D01*
X263780Y347441D02*
Y362795D01*
X274016Y347441D02*
Y362795D01*
X144331Y353150D02*
X144488Y352992D01*
Y335433*
X174803Y305118*
X154331Y350591D02*
Y332677D01*
X164508Y322500*
X202441*
X292126Y362402D02*
Y344724D01*
X292362Y344488*
X302362Y362402D02*
Y344724D01*
X302598Y344488*
X312598Y365354D02*
X312835Y365118D01*
Y347441*
X322835Y362402D02*
Y344724D01*
X323071Y344488*
X333071Y362402D02*
Y344724D01*
X333307Y344488*
X343307Y362402D02*
Y344724D01*
X343543Y344488*
X353543Y362402D02*
Y344724D01*
X353780Y344488*
X363780Y362402D02*
Y344724D01*
X364016Y344488*
G54D42*
X208248Y210669D03*
Y220669D03*
X218248Y210669D03*
Y220669D03*
X228248Y210669D03*
Y220669D03*
X238248Y210669D03*
Y220669D03*
X248248Y210669D03*
Y220669D03*
X207748Y287669D03*
Y297669D03*
X217748Y287669D03*
Y297669D03*
X227748Y287669D03*
Y297669D03*
X237748Y287669D03*
Y297669D03*
X247748Y287669D03*
Y297669D03*
X307748Y287669D03*
Y297669D03*
X317748Y287669D03*
Y297669D03*
X327748Y287669D03*
Y297669D03*
X337748Y287669D03*
Y297669D03*
X347748Y287669D03*
Y297669D03*
X308248Y209419D03*
Y219419D03*
X318248Y209419D03*
Y219419D03*
X328248Y209419D03*
Y219419D03*
X338248Y209419D03*
Y219419D03*
X348248Y209419D03*
Y219419D03*
X294094Y164567D03*
X283858Y174803D03*
X324409D03*
X335433Y175197D03*
X355512D03*
X273248Y184606D03*
X145000Y200000D03*
X166142Y198031D03*
X208248Y192106D03*
X218248D03*
X228248D03*
X238248D03*
X248248D03*
X315748D03*
X152362Y237008D03*
X179921D03*
X325197Y240551D03*
X362598Y240157D03*
X170866Y247638D03*
X187087Y246732D03*
X292126Y249213D03*
X275984Y255906D03*
X207748Y269606D03*
X218248D03*
X228248D03*
X238248D03*
X248248D03*
X298031Y264173D03*
X412500Y302500D03*
X359843Y316929D03*
X370079Y314961D03*
X437500Y320000D03*
X205000Y322500D03*
X283465Y322047D03*
X415000Y330000D03*
X437500Y352500D03*
G54D43*
X137008Y237402D03*
Y276772D03*
X439370Y155512D03*
X400000D03*
G54D44*
X144305Y219685D02*
X155906Y208085D01*
Y175197*
X170866Y160236*
Y158661*
X144305Y230315D02*
Y219685D01*
X141339Y237402D02*
X151181Y247244D01*
X170472*
X139792Y234618D02*
X144094Y230315D01*
X362598Y240157D02*
X362638Y240197D01*
Y255118*
X366535Y240157D02*
X369291D01*
X377165Y232283*
Y178346*
X381890Y173622*
X408661*
X412500Y177461*
Y298563*
X170683Y247455D02*
Y246732D01*
X183150*
X298031Y264173D02*
X298386Y263819D01*
X353937*
X362638Y255118*
X287402Y322047D02*
X354724D01*
X359449Y317323*
X359843Y316929*
G54D45*
X124998Y291931D02*
X126744Y290185D01*
X124998Y282872D02*
X126744Y284618D01*
X134057Y291931D02*
X132311Y290185D01*
X150219Y357261D02*
X151964Y355516D01*
X150219Y349038D02*
X151964Y350783D01*
X158443Y349038D02*
X156697Y350783D01*
X158443Y357261D02*
X156697Y355516D01*
X419251Y334251D02*
X417505Y332505D01*
X410749Y334251D02*
X412495Y332505D01*
X410749Y325749D02*
X412495Y327495D01*
X419251Y325749D02*
X417505Y327495D01*
X209251Y326751D02*
X207505Y325005D01*
X200749Y326751D02*
X202495Y325005D01*
X200749Y318249D02*
X202495Y319995D01*
X209251Y318249D02*
X207505Y319995D01*
X175670Y241259D02*
X177416Y239513D01*
X175670Y232757D02*
X177416Y234502D01*
X184172Y232757D02*
X182427Y234502D01*
X374330Y319212D02*
X372584Y317466D01*
X365828Y319212D02*
X367573Y317466D01*
X365828Y310710D02*
X367573Y312455D01*
X374330Y310710D02*
X372584Y312455D01*
X329448Y244802D02*
X327702Y243057D01*
X320946Y244802D02*
X322691Y243057D01*
X320946Y236300D02*
X322691Y238046D01*
X329448Y236300D02*
X327702Y238046D01*
G54D49*
X129528Y287402D03*
X147638D03*
Y312598D03*
X129528D03*
X153543Y300000D03*
G74*
X0Y0D02*
M02*
