*
*
G04 PADS 9.4.1 Build Number: 494907 generated Gerber (RS-274-X) file*
G04 PC Version=2.1*
*
%IN "layout.pcb"*%
*
%MOIN*%
*
%FSLAX35Y35*%
*
*
*
*
G04 PC Standard Apertures*
*
*
G04 Thermal Relief Aperture macro.*
%AMTER*
1,1,$1,0,0*
1,0,$1-$2,0,0*
21,0,$3,$4,0,0,45*
21,0,$3,$4,0,0,135*
%
*
*
G04 Annular Aperture macro.*
%AMANN*
1,1,$1,0,0*
1,0,$2,0,0*
%
*
*
G04 Odd Aperture macro.*
%AMODD*
1,1,$1,0,0*
1,0,$1-0.005,0,0*
%
*
*
G04 PC Custom Aperture Macros*
*
*
*
*
*
*
G04 PC Aperture Table*
*
%ADD031C,0.001*%
%ADD050ANN,0.08087X0.0415*%
%ADD051ANN,0.08087X0.04937*%
%ADD052ANN,0.08874X0.0415*%
%ADD053ANN,0.07693X0.0415*%
%ADD054R,0.13X0.105*%
%ADD055ANN,0.08874X0.04937*%
*
*
*
*
G04 PC Circuitry*
G04 Layer Name layout.pcb - circuitry*
%LPD*%
*
*
G04 PC Custom Flashes*
G04 Layer Name layout.pcb - flashes*
%LPD*%
*
*
G04 PC Circuitry*
G04 Layer Name layout.pcb - circuitry*
%LPD*%
*
G54D31*
G54D50*
G01X208248Y210669D03*
Y220669D03*
X218248Y210669D03*
Y220669D03*
X228248Y210669D03*
Y220669D03*
X238248Y210669D03*
Y220669D03*
X248248Y210669D03*
Y220669D03*
X207748Y287669D03*
Y297669D03*
X217748Y287669D03*
Y297669D03*
X227748Y287669D03*
Y297669D03*
X237748Y287669D03*
Y297669D03*
X247748Y287669D03*
Y297669D03*
X307748Y287669D03*
Y297669D03*
X317748Y287669D03*
Y297669D03*
X327748Y287669D03*
Y297669D03*
X337748Y287669D03*
Y297669D03*
X347748Y287669D03*
Y297669D03*
X308248Y209419D03*
Y219419D03*
X318248Y209419D03*
Y219419D03*
X328248Y209419D03*
Y219419D03*
X338248Y209419D03*
Y219419D03*
X348248Y209419D03*
Y219419D03*
G54D51*
X385024Y154488D03*
X374787D03*
X364551D03*
X354315D03*
X344079D03*
X333843D03*
X323606D03*
X313370D03*
X294024D03*
X283787D03*
X273551D03*
X263315D03*
X253079D03*
X242843D03*
X232606D03*
X222370D03*
X202362Y344488D03*
X212598D03*
X222835D03*
X233071D03*
X243307D03*
X253543D03*
X263780D03*
X274016D03*
X292362D03*
X302598D03*
X312835D03*
X323071D03*
X333307D03*
X343543D03*
X353780D03*
X364016D03*
X392866Y334984D03*
X402709D03*
X392866Y324748D03*
X402709D03*
X392866Y314512D03*
X402709D03*
X392866Y304276D03*
X402709D03*
X392866Y294039D03*
X402709D03*
X392866Y283803D03*
X402709D03*
X392866Y273567D03*
X402709D03*
X392866Y263331D03*
X402709D03*
X392913Y253543D03*
X402756D03*
X392913Y243307D03*
X402756D03*
X392913Y233071D03*
X402756D03*
X392913Y222835D03*
X402756D03*
X392913Y212598D03*
X402756D03*
X392913Y202362D03*
X402756D03*
X392913Y192126D03*
X402756D03*
X392913Y181890D03*
X402756D03*
X449213Y294488D03*
Y284252D03*
Y274016D03*
Y263780D03*
Y253543D03*
Y243307D03*
Y233071D03*
Y222835D03*
Y212598D03*
Y202362D03*
Y192126D03*
Y181890D03*
X202362Y365748D03*
X212598D03*
X222835D03*
X233071D03*
X243307D03*
X253543D03*
X263780D03*
X274016D03*
X292126Y365354D03*
X302362D03*
X312598D03*
X322835D03*
X333071D03*
X343307D03*
X353543D03*
X363780D03*
X201575Y154331D03*
X191339D03*
X181102D03*
X170866D03*
X160630D03*
X150394D03*
X140157D03*
X129921D03*
X449213Y331102D03*
Y320866D03*
Y310630D03*
G54D52*
X137008Y237402D03*
Y276772D03*
X439370Y155512D03*
X400000D03*
G54D53*
X420472Y170866D03*
X430472D03*
X154331Y353150D03*
X144331D03*
G54D54*
X144305Y219685D03*
X173805D03*
X144699Y180709D03*
X174199D03*
G54D55*
X129528Y287402D03*
X147638D03*
Y312598D03*
X129528D03*
X153543Y300000D03*
X0Y0D02*
M02*
